<?xml version="1.0" encoding="UTF-8" standalone="no"?>
<!-- Created with Inkscape (http://www.inkscape.org/) -->

<svg
   width="210mm"
   height="297mm"
   viewBox="0 0 210 297"
   version="1.1"
   id="svg1"
   inkscape:version="1.4.2 (f4327f4, 2025-05-13)"
   sodipodi:docname="mysliwiec.svg"
   xmlns:inkscape="http://www.inkscape.org/namespaces/inkscape"
   xmlns:sodipodi="http://sodipodi.sourceforge.net/DTD/sodipodi-0.dtd"
   xmlns="http://www.w3.org/2000/svg"
   xmlns:svg="http://www.w3.org/2000/svg">
  <sodipodi:namedview
     id="namedview1"
     pagecolor="#ffffff"
     bordercolor="#000000"
     borderopacity="0.25"
     inkscape:showpageshadow="2"
     inkscape:pageopacity="0.0"
     inkscape:pagecheckerboard="0"
     inkscape:deskcolor="#d1d1d1"
     inkscape:document-units="mm"
     showguides="false"
     inkscape:zoom="0.50835204"
     inkscape:cx="410.14884"
     inkscape:cy="404.24742"
     inkscape:window-width="1920"
     inkscape:window-height="1009"
     inkscape:window-x="-8"
     inkscape:window-y="-8"
     inkscape:window-maximized="1"
     inkscape:current-layer="layer1" />
  <defs
     id="defs1">
    <pattern
       id="EMFhbasepattern"
       patternUnits="userSpaceOnUse"
       width="6"
       height="6"
       x="0"
       y="0" />
  </defs>
  <g
     inkscape:label="Layer 1"
     inkscape:groupmode="layer"
     id="layer1">
    <path
       style="fill:#000000;stroke-width:3.05474"
       d="m 53.749469,225.47834 c -6.976942,-8.827 8.51529,-14.33924 13.10298,-20.8007 5.3982,-1.61389 16.65703,-9.93096 7.809,-12.94408 -10.48994,0.002 -21.02948,0.73965 -31.406426,2.30569 -7.992577,2.10435 -13.535017,-9.06884 -13.027226,-14.8648 5.831227,-6.34836 13.394607,-11.63917 20.143562,-17.3687 5.29915,-6.12034 17.471,-9.65625 17.33349,-17.81841 -0.68526,-3.49826 2.50493,-9.31714 2.95978,-2.62007 2.549,6.55483 10.48045,-5.39963 10.64027,-9.15228 2.40536,-8.0806 4.08605,-16.31168 4.40287,-24.66204 3.2718,0 6.543609,0 9.815389,0 1.0154,-14.140641 -0.72799,-29.478805 8.353782,-42.078664 8.69737,7.673731 7.54806,19.394091 8.79858,29.245811 1.6256,4.695198 -2.78643,14.896703 6.26466,12.832853 6.73799,-1.76832 4.01017,4.79608 5.14078,8.36675 0.97849,7.09539 2.76332,14.08183 4.37862,21.0843 3.26521,3.70027 9.85955,10.99112 10.63113,2.58444 4.64791,1.0384 -0.57279,10.74156 6.90474,12.31631 11.03868,9.00986 22.53728,17.63913 32.77542,27.33874 1.83479,6.00505 -5.47727,10.78081 -8.72637,15.31389 -9.36499,-0.84568 -18.90665,-2.84807 -28.56384,-2.63751 -5.23529,-0.17577 -13.83221,-1.55316 -10.19753,5.13906 6.83854,7.22122 17.98532,12.11604 24.48903,20.49276 7.3145,8.399 -10.22639,13.83796 -17.31777,8.54761 -6.18039,-2.84594 -13.81299,1.91077 -14.06976,-6.69646 -1.47318,-3.70032 -2.74077,-12.21503 -3.9012,-3.95694 -0.94788,6.99171 -14.88354,6.9838 -13.43751,-0.88498 -0.94972,0.0709 -13.270052,11.03633 -18.134861,3.07999 -0.6843,-3.71934 -1.53382,-8.67684 -3.00673,-2.31313 -2.35737,4.52025 -2.23177,13.25157 -9.24441,9.19883 -6.98234,0.45302 -17.73157,7.78711 -22.91045,0.95173 z m 13.42281,0.0698 c 7.39755,-1.31412 17.03371,-2.11218 13.36317,-10.87579 0.51567,-4.23517 -3.30448,-7.78275 -6.67059,-3.16787 -4.90014,0.76938 1.96492,-12.05864 -5.18555,-6.49299 -5.01293,5.92219 -17.39947,10.31714 -14.66349,18.9285 2.42379,4.56396 8.96853,2.66717 13.15646,1.60815 z m -4.67073,-13.82211 c 2.71586,-2.69928 13.11277,-10.70963 5.11734,-3.55603 -3.30441,2.88438 -11.38567,10.49797 -12.08888,9.80775 2.22636,-2.16202 4.61045,-4.19886 6.97154,-6.25172 z m 91.819161,12.63267 c 4.62502,-5.95085 -9.20471,-9.08984 -10.73132,-14.71554 3.10136,1.71943 11.51693,9.88402 10.64837,8.03595 -5.55111,-4.22573 -14.12597,-13.77135 -18.08627,-14.39039 0.78111,4.12058 1.68468,11.28944 -4.0425,5.84914 -6.602,0.2419 -3.41767,18.31311 -4.84049,6.6222 -0.2995,-6.72514 -4.24775,7.29489 2.42598,7.26875 7.38223,0.81052 14.67095,4.72999 22.1457,3.38071 1.06517,-0.42275 1.91484,-1.18039 2.48053,-2.05082 z m -14.79973,-18.06618 c -7.25576,-6.52518 7.48383,5.50484 1.56088,1.4313 l -0.71746,-0.64119 z m -56.475621,9.41353 c -2.3984,-6.25234 -1.48207,11.07092 0.0911,2.53872 l 0.0784,-1.26752 z m 10.983389,2.4605 c -3.751649,-1.83804 -4.157639,2.77724 0,0 z m 5.25454,0.39198 c -3.50574,-2.23878 -4.9983,1.53351 0,0 z m 17.594582,-0.40428 c -5.95413,2.58289 -2.81136,-11.71764 -4.42967,-3.06698 -3.6889,4.62167 2.24393,4.66782 4.42967,3.06698 z m -24.704262,-3.61777 c 0.1268,-6.39612 -1.539549,5.78474 -1.968259,-0.54607 -0.88338,2.533 3.322929,4.75869 1.968259,0.54607 z m 5.97754,-1.11543 c -1.47895,3.05045 1.07022,4.37768 0,0 z m 1.73583,0.36598 c -1.80154,2.13054 1.273572,3.62812 0,0 z m 10.855972,2.47527 c 4.41719,-5.46759 -6.20483,-3.0613 -1.32049,0.56902 0.28663,-0.28287 0.77769,-0.81185 1.32049,-0.56902 z m 7.12371,-1.88017 c -1.52426,-5.76671 -0.97479,5.14369 -0.0812,1.25851 z M 93.772368,212.6716 c -1.47892,3.05048 1.07022,4.37765 0,0 z m 2.88365,1.30278 c -1.03433,-6.66653 -2.81391,2.34876 -0.56635,2.18622 l 0.27308,-0.81419 z m 19.266682,0.37474 c -1.34436,-6.39951 -2.38982,5.36078 -0.12416,0.76732 l 0.0664,-0.41032 z m -10.49568,-9.18077 c -1.71512,-5.36826 1.27486,-12.79606 9.16254,-9.44126 2.92192,-2.44653 0.66373,-7.18918 1.33314,-10.64048 0.23676,-3.48123 0.90178,-8.62235 -5.49679,-5.60137 -5.1067,0.74343 -3.47819,15.13332 -3.75375,5.7024 1.57785,-5.7956 -8.084602,-4.14633 -4.32265,1.0276 0.98165,9.88303 -1.49012,-3.84212 -1.41288,-7.1254 -1.043282,-6.95934 -2.561922,-14.63211 -5.299982,-20.6349 -6.095939,-0.81671 -11.678329,-0.99875 -9.901499,5.90074 0.14939,8.84144 -3.6759,17.01965 -5.95861,25.46417 -0.0974,5.81249 -0.68802,10.38866 -6.16739,13.94528 -0.40855,3.51918 -1.96013,9.58623 3.1014,4.12398 3.45303,-5.82671 2.64535,-13.35101 4.88972,-19.82021 2.79489,-9.63449 1.75371,5.33241 2.00859,8.34019 0.069,4.45644 -0.91396,16.16213 1.04631,16.08174 2.89025,-2.34596 2.63427,-14.29824 1.44172,-6.35368 -0.51983,6.50808 -1.71853,-6.20221 -0.80804,-8.54478 3.5984,-2.69575 7.693619,-1.54451 6.11269,-6.94994 0,-4.08888 0,-8.17775 0,-12.26663 4.019609,-0.0478 11.313451,0.53816 3.205799,0.52714 -5.149299,2.48932 -0.73518,10.66419 -1.92005,15.4378 2.32348,2.26339 14.128612,-0.36436 9.869792,6.90267 -0.16511,3.6382 -0.44103,13.76166 2.52345,12.63077 0.35098,-2.89181 0.30248,-5.80342 0.34649,-8.70583 z m 19.25325,0.5621 c 0,-2.8729 0,-5.7458 0,-8.61871 -3.83698,-1.6591 -2.49063,7.57706 -1.75145,2.6231 1.88155,2.83743 -0.17336,13.51123 1.61243,12.24532 0.11326,-2.08171 0.13406,-4.16611 0.13902,-6.24971 z m -34.949121,3.55987 c -1.66594,-5.03521 0.41093,7.27449 -1.7e-4,0 z m 11.303651,-0.18735 c -1.843022,-6.37917 -1.687652,5.68479 -0.0165,0.54646 l 0.0132,-0.41407 z m 8.06865,0 c -0.0165,-5.48122 -1.78461,3.73061 -0.29753,1.04159 z m -10.967982,-2.061 c -1.80154,2.13054 1.27356,3.62811 0,0 z m 13.136352,0 c -1.80148,2.13074 1.2737,3.62792 0,0 z m 6.1303,0 c -1.80148,2.13074 1.27369,3.62792 0,0 z m 2.89936,1.68628 c -1.51515,-5.42079 -2.16801,4.77077 -0.0984,0.50603 l 0.0796,-0.40862 z m 2.53762,-2.43573 c -0.7199,-10.23104 -1.23546,10.07824 0.01,0.86553 -0.002,-0.28595 -0.01,-0.58035 -0.01,-0.86553 z m 12.5773,0.74945 c 0.65792,-4.37898 -7.04016,-10.06228 -4.68974,-2.12554 0.20209,2.64937 6.01881,9.45273 4.68974,2.12554 z m -52.868971,-5.43363 c 0.77856,-2.53993 -1.43763,-11.39937 -1.72678,-3.91814 -0.25139,2.93343 -0.72727,11.45216 1.68054,10.56367 0.12165,-2.21371 0.0745,-4.43055 0.0462,-6.64553 z m 9.668249,6.18297 c -0.36049,-5.31786 -1.783049,5.62197 0,0 z m 1.54421,-0.73519 c -1.91197,1.81428 1.50626,3.15781 0,0 z m 2.89613,0.92257 c -1.51518,-5.4208 -2.16801,4.77079 -0.0984,0.50603 l 0.0796,-0.40862 z m 16.367312,-1.68629 c -1.80147,2.13074 1.2737,3.62792 0,0 z m 2.89937,1.68629 c -1.81426,-5.33744 -1.42507,5.01732 3e-5,0 z m 11.93256,-5.6209 c 3.36658,-8.73197 0.25757,-17.68274 -3.04783,-25.98342 -2.96904,-5.31805 0.87163,-15.61354 -4.07816,-18.23418 -3.06179,0 -6.12356,0 -9.18536,0 1.75363,6.91021 -5.30727,14.61104 -2.48927,20.65113 6.52038,-1.51764 9.98153,1.02737 8.38261,6.7996 -0.36109,4.93048 -0.83851,13.67007 7.37054,9.68381 0.11062,-1.85669 -1.05588,-11.27167 1.15822,-9.63882 1.80118,5.91968 -0.88748,19.8076 1.77853,20.95943 0.25129,-1.40164 0.24039,-2.82755 0.11062,-4.23755 z m -0.2853,-9.74287 c 0.58064,-6.31462 0.36808,6.17274 0.003,0.19527 z m -26.87366,11.96311 c 0.1694,-6.80712 -19.139881,-0.35567 -7.614112,-0.4344 3.16324,-2.34203 7.855492,4.70834 7.614112,0.4344 z m 20.3121,-0.32704 c -1.56098,-6.25506 -20.6186,0.53383 -7.43715,-0.2402 3.53992,-0.597 3.8057,1.14863 0.16214,1.29391 2.43274,-0.29061 4.95774,-0.26167 7.27511,-1.05374 z m -19.09798,-5.06409 c -2.212122,-4.77785 -17.023421,-3.78755 -14.428221,1.3723 -3.89391,-5.77612 0.25066,3.8233 4.380149,0.69528 2.61935,-0.87718 11.552002,2.04195 10.048072,-2.06758 z m 19.08883,-0.18086 c -0.57605,-4.21957 -10.17054,-2.13071 -13.49694,-1.56155 -2.64395,5.74306 5.97464,3.3617 9.77591,3.81793 2.66868,-0.30595 4.86872,1.22282 3.72103,-2.25638 z m -80.925108,-7.70275 c -0.01453,-7.78108 11.896887,-9.30322 17.009487,-14.37423 5.24198,-1.85281 7.29402,-5.10184 6.29365,-9.68697 0,-3.86088 0,-7.7218 0,-11.58268 -10.05237,7.47798 -20.120631,15.03797 -28.676551,23.81221 -2.256012,5.51677 -1.339501,0.0867 -3.624423,-0.42507 -0.641167,5.31364 4.80595,11.93567 9.049138,13.79947 l -0.05132,-1.54284 z m 7.917969,0.90524 c 7.532638,-0.27495 3.111298,-8.57838 -2.546319,-4.43719 -8.03322,1.08118 -3.68188,7.96033 2.546319,4.43719 z m 119.600199,-0.34317 c 0.50047,-6.75786 -16.13379,-5.49221 -9.22039,-0.12434 2.71065,0.0726 7.55804,3.17951 9.22039,0.12434 z m 6.14513,-3.49171 c 6.75747,-5.30197 -2.08067,-11.76936 -6.79683,-15.80772 -7.13547,-4.65405 -12.39202,-11.38371 -20.17153,-15.20574 -4.8363,4.3178 -2.59439,18.70458 7.11307,20.93903 4.71663,4.53514 16.69654,6.23991 14.96025,13.14765 0.87718,4.0123 3.87623,-2.17098 4.89504,-3.07322 z m -91.365581,0.68129 c -1.80155,2.13051 1.27359,3.62809 0,0 z m -23.53821,-1.5641 c 1.62243,-8.42442 -12.431469,4.58253 -2.07516,3.53102 2.66129,-0.22183 2.11556,-1.97116 2.07516,-3.53102 z m 95.622311,0.62726 c 0.87966,-4.94373 -7.35908,-4.15514 -4.61571,0.64786 -0.14661,3.8124 6.35303,3.34881 4.61571,-0.64786 z m -74.643911,-2.24835 c 4.68026,-8.17575 -9.00038,-2.59015 -13.69852,-2.71058 -6.40938,-2.07623 -9.47285,8.17408 -2.46068,7.20729 4.81919,0 9.63837,0 14.45755,0 0.56722,-1.49891 1.13443,-2.99781 1.70165,-4.49671 z m 69.220801,1.31155 c 0.63107,-4.39269 -7.6993,-3.1653 -5.0858,-8.63208 1.10489,-4.42074 -0.97885,-6.63242 -6.60092,-5.95641 -8.39007,0.65331 -14.2632,-3.57731 -11.95601,-11.03526 -2.22256,-1.91266 -1.21214,9.1608 -0.49578,11.93632 -0.77577,7.9113 7.72024,7.58194 14.44555,8.87645 -6.08219,-0.64958 -15.78614,-2.60439 -9.64406,5.51595 4.2894,4.49306 16.43049,3.3414 19.45414,0.68016 l -0.11722,-1.38513 z m 6.90256,-0.37472 c -1.80154,2.13049 1.2736,3.62809 0,0 z m -94.269961,-3.93464 c 4.15973,-1.5648 1.48237,-12.07009 -3.31435,-5.74043 -4.88129,3.05644 -15.945165,8.92526 -16.366582,10.89724 6.714912,-1.27806 12.905732,-4.07065 19.680932,-5.15681 z m 106.395401,5.28864 c -7.17238,-4.17843 -16.60586,-12.0942 -23.34008,-12.78004 -2.19694,8.5101 8.44885,8.98522 15.05832,11.05006 2.67819,0.75369 5.39415,1.89967 8.28176,1.72998 z m 10.04058,-7.10209 c -6.98654,-8.90567 -17.48912,-15.19537 -26.1073,-22.86941 -5.01075,-3.16962 -11.42843,-10.19049 -14.00319,-11.90127 -2.91261,-1.38903 -13.46343,-9.56936 -5.7667,-2.64757 14.25286,11.79722 29.14,23.01658 43.42021,34.78911 -0.91951,1.50218 2.14301,6.94567 2.45698,2.62914 z m -103.599691,0.20686 c 10.78928,1.41556 9.38563,-9.85438 10.14597,-16.00663 0.16068,-3.00656 -1.33473,-6.56525 -0.82656,-1.4473 2.45689,9.96057 -10.38162,8.16046 -17.74934,9.50145 -2.89497,0.79201 -1.02511,5.24322 -1.83448,7.63688 -0.43429,2.93188 8.17858,-0.11077 10.26441,0.3156 z m 32.663391,-8.1363 c 0,-2.49816 0,-4.99635 0,-7.49452 -11.053872,-2.37478 -3.27525,9.87894 -5.25464,14.989 6.78617,1.83253 5.19101,-3.90064 5.25464,-7.47004 z m -59.551443,-6.32958 c 11.212562,-9.25223 23.360202,-17.67651 33.935442,-27.48929 -0.031,5.17034 0.22636,14.82495 3.05742,16.89751 0.85234,-3.91331 1.75601,-12.65853 -0.95688,-13.43025 -0.54571,2.64539 -0.46606,9.56665 -1.12474,2.77567 0.80348,-2.87559 4.28724,-11.6663 -2.29356,-6.73529 -2.3655,4.79137 -11.96714,8.92178 -11.42442,4.84189 1.83569,8.12616 -10.39125,11.18633 -15.1172,16.91907 -7.103059,5.65269 -14.174624,11.34232 -20.88811,17.33688 5.545316,-3.07198 9.86304,-7.43028 14.812048,-11.11619 z m 27.586322,4.58259 c 12.52607,1.08014 5.8335,-13.02512 6.28063,-19.39208 0.38079,-5.24944 -1.76314,-12.05404 -7.27499,-5.25647 -3.97406,4.02111 -11.7787,6.61744 -9.95278,12.85203 0,4.26471 0,8.52938 0,12.79406 3.67823,-0.0362 7.3112,-0.5805 10.94714,-0.99754 z m 68.681031,-8.18326 c 2.49026,-8.03963 -3.88271,-13.00421 -10.6233,-17.5129 -3.796,-4.22215 -5.68868,-3.54979 -5.43266,1.65263 -0.9309,7.69444 -0.97278,15.43989 -0.95531,23.16742 5.34667,-0.58583 17.90591,5.43092 17.05201,-1.56923 -0.0132,-1.91262 -0.0264,-3.82537 -0.0406,-5.73792 z m -43.48731,4.12199 c -2.437732,-6.26002 -0.639962,4.28743 0.0677,1.13259 l -0.0674,-1.13259 z m 9.38526,-0.74945 c -2.94143,-5.1364 -1.15098,8.63221 0,0 z m -9.61995,-4.30935 c -1.515212,-5.42071 -2.167972,4.77079 -0.0984,0.50606 l 0.0796,-0.40862 z m 10.50912,0 c -2.57477,-2.67577 -1.47381,-2.58246 -0.41908,-4.367 -2.30158,-8.28417 2.25727,-16.84817 0.57887,-25.03904 -1.95093,3.38543 -1.14128,12.33468 -2.62232,13.03375 -1.88294,-9.21036 6.26885,-17.4073 3.68748,-26.57714 -0.46279,-11.96005 -0.65299,-23.937678 -1.84532,-35.866843 -4.24238,-6.396829 -15.752562,-0.525981 -11.443852,5.616773 -1.61408,3.036633 -0.85915,11.47855 -0.68133,11.55626 -0.18987,-4.765221 2.552182,-17.547038 10.088232,-11.040226 4.1901,7.778796 1.97071,16.881796 2.53563,25.210736 -0.54673,5.52516 0.94669,18.57835 -9.52689,13.19002 -4.618392,-4.8461 -1.504812,-12.17307 -3.974712,-17.9588 1.06666,7.3277 -3.28465,16.9041 2.08153,22.63964 2.323612,5.47328 1.020462,11.78143 1.991382,17.59081 -2.107452,3.10598 10.80997,1.71808 3.77262,3.37212 -6.256512,-1.50497 -4.52405,8.82669 -2.3102,10.71935 2.24428,-1.29872 8.88037,1.81605 8.08796,-2.08041 z m -10.61274,-10.30493 c 0.45226,-2.53592 -1.026502,-13.95193 -1.296742,-6.02271 0.19713,3.49798 -0.55116,11.82011 1.10086,12.21486 0.221902,-2.05823 0.204072,-4.12748 0.195822,-6.19215 z m -6.519582,1.4989 c -1.950369,-4.32258 8.341232,-4.40843 3.64006,-9.52075 0.62998,-3.44345 -0.80786,-15.09008 -5.942499,-9.7186 -1.27059,5.72416 5.204309,17.54817 -4.69008,16.76283 -4.22108,4.86809 4.51549,9.74578 7.143589,4.38732 l -0.033,-0.87192 z m 4.87169,0.56207 c 0.76365,-6.73758 -6.20823,-1.45242 -3.46938,2.80208 3.02376,2.02022 4.25971,-0.20262 3.46938,-2.80208 z m 15.763652,0 c 0.45692,-9.28403 -9.06119,5.07813 -0.70622,3.23082 1.29988,-0.62876 1.4077,-2.22459 0.70622,-3.23082 z m 8.75757,0 c 1.8411,-5.31429 -9.52161,-1.84352 -5.43843,-8.55577 0.12118,-4.36234 2.16887,-17.76537 -5.31524,-11.05908 1.46136,4.66482 -4.32136,13.98694 0.48938,15.40437 6.66501,-0.19583 -2.07971,10.58569 7.37282,7.67455 2.78339,0.41702 3.79381,-1.42701 2.89147,-3.46407 z m 1.52291,-9.18077 c -1.03489,3.3319 0.25228,13.28078 0.12944,4.10583 -0.002,-1.3692 -0.0353,-2.73879 -0.12944,-4.10583 z m 2.76857,-0.65578 c 1.49444,-2.80078 -2.42482,-14.36284 -2.75196,-6.42455 0.71286,3.69538 0.95758,12.21472 2.20843,12.8432 0.51051,-2.11093 0.43413,-4.27686 0.54353,-6.41865 z m -36.694511,2.34203 c 1.498109,-5.47952 -7.20102,-3.79377 -4.46891,1.18043 -0.5026,4.22525 6.705699,2.42449 4.46891,-1.18043 z m 32.229011,-0.0927 c 1.44531,-5.76411 -7.2335,-3.61217 -4.34048,1.6079 0.16808,3.79182 5.8017,1.32839 4.34048,-1.6079 z m -33.104751,-5.90295 c -4.8712,-7.74881 -3.50843,7.28752 0,0 z m 33.120731,-0.19498 c 0.0165,-5.45098 -8.29523,3.47038 -0.92601,1.62163 l 0.46111,-0.46596 z m -23.487422,-3.83517 c 0.41943,-3.75198 -4.52854,-6.32669 -2.0035,-0.81253 -0.13836,2.53278 1.95456,5.61689 2.0035,0.81253 z m -8.757569,-1.21592 c 0.58632,-6.91388 -9.15016,1.02885 -2.52009,2.84854 2.7583,0.12745 2.75477,-0.61742 2.52009,-2.84854 z m 32.239581,-0.18736 c 0.003,-7.98641 -9.30473,4.20438 -1.22453,2.24005 1.17433,-0.45239 1.00523,-1.42142 1.22453,-2.24005 z m -37.494101,-0.18735 c -3.16137,-2.58229 -3.38866,2.86954 0,0 z m -0.0783,-6.18297 c 0.19866,-4.01577 -0.23379,-5.25201 -1.78671,-0.53697 -1.48814,4.7741 1.85579,7.69506 1.78671,0.53697 z m 40.635191,2.24836 c 0.16246,-3.72383 -3.06272,-5.49233 -1.95364,-0.73309 -1.45802,2.33516 3.46155,5.32989 1.95364,0.73309 z m -31.076572,-3.74726 c 0.4937,-5.53756 -1.6508,6.22612 -6.512619,1.25071 2.86912,-1.57198 -2.2591,-1.65241 2.43667,-1.43323 8.938919,-3.88025 -8.59685,-7.28857 -4.41348,0.44499 -2.95708,6.38137 12.085379,6.52376 8.489429,-0.26253 z m 28.177242,1.37284 c 4.45611,-5.63379 -5.0509,-7.79007 -7.54275,-3.85546 -4.00452,-4.13248 -3.28037,9.89612 4.13664,7.53328 3.86041,0.11417 3.63445,-0.79791 3.40611,-3.67782 z m -7.88182,-1.01791 c 1.95836,-4.31964 11.79698,2.66283 2.04247,1.33509 -0.9281,0.10484 -2.06657,-0.46384 -2.04247,-1.33509 z m -8.9156,-1.10438 c -2.62067,-1.65944 -4.59699,-3.7058 0.04,-1.774 2.22151,7.05212 5.01204,-5.14463 -1.43721,-1.73535 -11.244672,-2.1874 0.29719,10.82614 1.39719,3.50935 z M 94.904538,119.1686 c 0.99737,-6.46264 -14.272419,-2.79346 -8.088079,2.94499 3.06168,-0.52335 9.888629,2.1148 8.088079,-2.94499 z m 28.024252,2.34203 c 3.12047,-9.02645 -16.53358,-5.17347 -7.25553,0.49775 2.40629,0.11134 5.01916,0.55037 7.25553,-0.49775 z m -28.024252,-9.4618 c 1.5088,-6.61018 -13.816129,-3.85591 -8.717419,2.63555 2.16944,1.46042 11.298489,1.96034 8.717419,-2.63555 z m 27.148492,0 c 1.78684,-5.88481 -11.51091,-4.35002 -8.17303,1.65964 -1.31388,2.94185 12.07254,2.96971 8.17303,-1.65964 z M 109.79012,79.714031 c -0.6166,-4.634215 -5.61589,-18.125723 -8.29623,-7.513814 -1.527202,4.047506 -5.535612,10.431477 2.9106,8.41866 1.83278,0.0057 3.74989,-0.124903 5.38563,-0.904846 z"
       id="path5" />
  </g>
</svg>
