<?xml version="1.0" encoding="UTF-8" standalone="no"?>
<!-- Created with Inkscape (http://www.inkscape.org/) -->

<svg
   width="210mm"
   height="297mm"
   viewBox="0 0 210 297"
   version="1.1"
   id="svg1"
   inkscape:version="1.4.2 (f4327f4, 2025-05-13)"
   sodipodi:docname="icon.svg"
   xmlns:inkscape="http://www.inkscape.org/namespaces/inkscape"
   xmlns:sodipodi="http://sodipodi.sourceforge.net/DTD/sodipodi-0.dtd"
   xmlns="http://www.w3.org/2000/svg"
   xmlns:svg="http://www.w3.org/2000/svg">
  <sodipodi:namedview
     id="namedview1"
     pagecolor="#ffffff"
     bordercolor="#000000"
     borderopacity="0.25"
     inkscape:showpageshadow="2"
     inkscape:pageopacity="0.0"
     inkscape:pagecheckerboard="0"
     inkscape:deskcolor="#d1d1d1"
     inkscape:document-units="mm"
     showguides="false"
     inkscape:zoom="0.50835204"
     inkscape:cx="170.15767"
     inkscape:cy="406.21456"
     inkscape:window-width="1920"
     inkscape:window-height="1009"
     inkscape:window-x="-8"
     inkscape:window-y="-8"
     inkscape:window-maximized="1"
     inkscape:current-layer="layer1" />
  <defs
     id="defs1">
    <pattern
       id="EMFhbasepattern"
       patternUnits="userSpaceOnUse"
       width="6"
       height="6"
       x="0"
       y="0" />
  </defs>
  <g
     inkscape:label="Layer 1"
     inkscape:groupmode="layer"
     id="layer1">
    <path
       style="fill:#00ffff;stroke-width:4.11421"
       d="m 34.86716,256.34712 c -9.708965,-11.5062 11.849699,-18.69153 18.233833,-27.11419 7.512019,-2.10375 23.179565,-12.94522 10.866839,-16.87291 -14.597579,0.002 -29.264181,0.96416 -43.70452,3.00553 C 9.1410087,218.1086 1.4282647,203.54412 2.1348957,195.98893 10.24951,187.71372 20.77455,180.81702 30.166254,173.34844 c 7.374184,-7.97799 24.312276,-12.58714 24.12092,-23.22669 -0.953595,-4.56005 3.485808,-12.14509 4.118769,-3.41533 3.547132,8.54438 14.584371,-7.03852 14.806773,-11.93017 3.347247,-10.53326 5.68606,-21.26266 6.126939,-32.14755 4.552968,0 9.105945,0 13.658895,0 1.413,-18.432642 -1.01305,-38.426284 11.62494,-54.850486 12.10307,10.002883 10.50372,25.280635 12.24391,38.122574 2.26215,6.120296 -3.87752,19.418192 8.71777,16.727912 9.37644,-2.30504 5.58047,6.2518 7.1538,10.90625 1.36166,9.24901 3.84538,18.35599 6.09319,27.48387 4.54379,4.82338 13.72034,14.32717 14.79408,3.36887 6.46793,1.35357 -0.79709,14.00187 9.60846,16.0546 15.3612,11.74454 31.36242,22.99299 45.60959,35.63665 2.55326,7.82772 -7.62203,14.05304 -12.14342,19.962 -13.03214,-1.10236 -26.3101,-3.71253 -39.74885,-3.43805 -7.28531,-0.22912 -19.2486,-2.02459 -14.19067,6.69888 9.51638,9.41302 25.02799,15.79353 34.07842,26.71278 10.17872,10.94828 -14.23081,18.03809 -24.09905,11.142 -8.60048,-3.70975 -19.22185,2.49072 -19.57916,-8.72899 -2.05006,-4.82345 -3.81401,-15.92257 -5.42883,-5.15797 -1.31906,9.11387 -20.71164,9.10354 -18.69936,-1.15358 -1.32161,0.0924 -18.46632,14.38611 -25.236085,4.01484 -0.952256,-4.84824 -2.134428,-11.31047 -4.1841,-3.01523 -3.280462,5.89226 -3.105681,17.27372 -12.864324,11.99089 -9.716478,0.59051 -24.67488,10.15067 -31.881701,1.24061 z m 18.678901,0.0909 c 10.294274,-1.71299 23.703753,-2.75328 18.595905,-14.17684 0.717596,-5.52065 -4.598444,-10.145 -9.282652,-4.1294 -6.818931,1.0029 2.73434,-15.71872 -7.216102,-8.46377 -6.975888,7.71972 -24.212737,13.44864 -20.405404,24.67373 3.372896,5.94923 12.480418,3.47672 18.308253,2.09628 z m -6.49969,-18.0174 c 3.779333,-3.51859 18.247454,-13.96024 7.121182,-4.63537 -4.598347,3.75987 -15.844058,13.68434 -16.82263,12.78462 3.098155,-2.81824 6.415805,-5.47331 9.701448,-8.14925 z m 127.773599,16.46696 c 6.43608,-7.75706 -12.80906,-11.8488 -14.93346,-19.18204 4.31577,2.24133 16.02671,12.88406 14.81803,10.47505 -7.72481,-5.50834 -19.65739,-17.95125 -25.16848,-18.75819 1.08698,5.37126 2.34436,14.71603 -5.62544,7.62448 -9.18723,0.31533 -4.75596,23.87155 -6.73593,8.63219 -0.41678,-8.76637 -5.91108,9.50905 3.37595,9.47497 10.27296,1.05653 20.41577,6.16566 30.81748,4.40685 1.48227,-0.55107 2.66466,-1.53868 3.45185,-2.67331 z M 154.22498,231.338 c -10.09697,-8.50573 10.41434,7.17567 2.1721,1.86573 l -0.99842,-0.83582 z m -78.590276,12.27075 c -3.337562,-8.15007 -2.062418,14.43118 0.126773,3.30927 l 0.109101,-1.65225 z m 15.284256,3.20731 c -5.220722,-2.39593 -5.785684,3.62019 0,0 z m 7.3121,0.51096 c -4.87851,-2.9183 -6.95553,1.99896 0,0 z m 24.48426,-0.52699 c -8.28565,3.36685 -3.91224,-15.27421 -6.16426,-3.99788 -5.13338,6.02445 3.12262,6.08461 6.16426,3.99788 z m -34.377939,-4.71584 c 0.176453,-8.33749 -2.142397,7.54053 -2.73898,-0.71182 -1.229301,3.30181 4.624119,6.20305 2.73898,0.71182 z m 8.318229,-1.45401 c -2.05809,3.97635 1.48929,5.70643 0,0 z m 2.41554,0.47707 c -2.50699,2.77722 1.77227,4.72934 0,0 z m 15.10693,3.22658 c 6.14687,-7.12714 -8.63451,-3.99046 -1.83755,0.74174 0.39885,-0.36875 1.0822,-1.05828 1.83755,-0.74174 z m 9.91321,-2.45085 c -2.12113,-7.51703 -1.3565,6.70492 -0.113,1.64049 z m -33.5291,-2.22971 c -2.058045,3.97637 1.4893,5.70637 0,0 z m 4.01282,1.69821 c -1.43935,-8.68998 -3.91577,3.06165 -0.78812,2.84978 l 0.38001,-1.06133 z m 26.8111,0.48848 c -1.87078,-8.34192 -3.32562,6.98789 -0.17278,1.00021 l 0.0924,-0.53485 z M 106.78055,229.8726 c -2.38673,-6.99765 1.77406,-16.67996 12.7504,-12.30688 4.06606,-3.18912 0.92362,-9.37128 1.85516,-13.87012 0.32946,-4.53787 1.2549,-11.23942 -7.64922,-7.30151 -7.10637,0.96906 -4.84017,19.72663 -5.22364,7.43321 2.19571,-7.5547 -11.25034,-5.40484 -6.01531,1.3395 1.36606,12.88275 -2.0736,-5.00829 -1.96612,-9.28812 -1.45181,-9.07166 -3.56512,-19.07329 -7.37535,-26.89806 -8.482974,-1.06459 -16.251308,-1.3019 -13.778707,7.69175 0.207879,11.52502 -5.115308,22.1855 -8.291881,33.19311 -0.135538,7.57672 -0.957434,13.54185 -8.582408,18.17799 -0.568531,4.58733 -2.727676,12.49587 4.315843,5.37571 4.805163,-7.59527 3.681211,-17.40334 6.804431,-25.83609 3.889305,-12.55878 2.44042,6.95091 2.795116,10.87162 0.096,5.80907 -1.271852,21.0677 1.456019,20.96291 4.02201,-3.05801 3.665791,-18.63808 2.006263,-8.28216 -0.723384,8.48343 -2.391465,-8.08473 -1.124453,-11.13832 5.00746,-3.51397 10.706286,-2.0133 8.506289,-9.0594 0,-5.32996 0,-10.65988 0,-15.98983 5.593618,-0.0623 15.743558,0.70149 4.461118,0.68714 -7.165643,3.24488 -1.02305,13.90101 -2.67189,20.12351 3.2333,2.95038 19.66106,-0.47495 13.73458,8.9978 -0.22977,4.74247 -0.61373,17.93863 3.51158,16.46449 0.48843,-3.76954 0.42093,-7.56489 0.48218,-11.34825 z m 26.79241,0.73273 c 0,-3.74491 0,-7.4898 0,-11.2347 -5.33945,-2.16266 -3.46591,9.87687 -2.43727,3.41927 2.61831,3.69867 -0.24127,17.6122 2.24381,15.96205 0.15762,-2.71356 0.18655,-5.43061 0.19346,-8.14662 z m -48.634446,4.64035 c -2.318291,-6.56351 0.571837,9.48247 -2.45e-4,0 z m 15.729916,-0.24421 c -2.56471,-8.3154 -2.3485,7.41025 -0.023,0.71232 l 0.0182,-0.53975 z m 11.22816,0 c -0.023,-7.14491 -2.48343,4.86294 -0.41403,1.35774 z m -15.2628,-2.68657 c -2.50699,2.77722 1.77225,4.72932 0,0 z m 18.28027,0 c -2.50691,2.77747 1.77243,4.72908 0,0 z m 8.53079,0 c -2.50691,2.77747 1.77243,4.72908 0,0 z m 4.03469,2.19812 c -2.10847,-7.06613 -3.01696,6.2188 -0.13694,0.65962 l 0.11077,-0.53264 z m 3.53128,-3.17503 c -1.00179,-13.33639 -1.71924,13.13721 0.014,1.12823 -0.004,-0.37275 -0.014,-0.7565 -0.014,-1.12823 z m 17.5023,0.97691 c 0.91556,-5.70808 -9.79693,-13.1164 -6.52613,-2.77068 0.28121,3.45351 8.37564,12.32185 6.52613,2.77068 z m -73.571325,-7.08285 c 1.083432,-3.31087 -2.000575,-14.85933 -2.402949,-5.10739 -0.349831,3.82378 -1.012056,14.92815 2.338603,13.76999 0.169286,-2.88563 0.10367,-5.77532 0.06429,-8.6626 z m 13.454131,8.05964 c -0.501645,-6.93195 -2.481256,7.32837 0,0 z m 2.148894,-0.95834 c -2.660657,2.36495 2.09608,4.11627 0,0 z m 4.03019,1.20259 c -2.10848,-7.06613 -3.01694,6.21884 -0.13694,0.65963 l 0.11078,-0.53265 z m 22.7764,-2.19811 c -2.5069,2.77746 1.77244,4.72907 0,0 z m 4.0347,2.19811 c -2.52468,-6.95746 -1.98309,6.5402 4e-5,0 z m 16.6051,-7.32696 c 4.68487,-11.38232 0.35842,-23.04986 -4.2413,-33.86998 -4.13165,-6.93219 1.21294,-20.35261 -5.67508,-23.76866 -4.26072,0 -8.52141,0 -12.78215,0 2.44031,9.00761 -7.38548,19.04582 -3.46401,26.9192 9.07362,-1.97827 13.89008,1.33921 11.66506,8.86344 -0.50248,6.427 -1.16684,17.81923 10.25669,12.62306 0.15394,-2.42023 -1.46934,-14.69287 1.61174,-12.56442 2.5065,7.71643 -1.23498,25.81965 2.47498,27.3211 0.34968,-1.82707 0.33452,-3.68578 0.15393,-5.52374 z m -0.39702,-12.70006 c 0.808,-8.23124 0.51222,8.04631 0.005,0.25454 z m -37.39682,15.59419 c 0.23572,-8.87324 -26.634643,-0.46364 -10.59562,-0.56625 4.40189,-3.05289 10.93152,6.13741 10.59562,0.56625 z m 28.26589,-0.42632 c -2.17223,-8.1536 -28.6924,0.69588 -10.34938,-0.31309 4.92609,-0.77819 5.29594,1.49726 0.22563,1.68664 3.38535,-0.37883 6.89909,-0.34109 10.1239,-1.37358 z m -26.57634,-6.60115 c -3.07834,-6.22803 -23.689424,-4.93716 -20.078,1.78883 -5.418688,-7.5293 0.34881,4.98376 6.09532,0.90632 3.64504,-1.14343 16.07551,2.66172 13.98268,-2.69515 z m 26.56361,-0.23575 c -0.80162,-5.50031 -14.15311,-2.77743 -18.78205,-2.0355 -3.67927,7.4862 8.31418,4.38203 13.60393,4.97675 3.71369,-0.39882 6.77522,1.59396 5.17812,-2.94125 z M 15.836863,211.79916 c -0.02022,-10.14281 16.555456,-12.12697 23.670046,-18.73714 7.294628,-2.41518 10.150203,-6.65034 8.758109,-12.62719 0,-5.03272 0,-10.06552 0,-15.09826 -13.988665,9.74771 -27.999448,19.60231 -39.9056843,31.03975 -3.139418,7.19124 -1.864021,0.11301 -5.043672,-0.5541 -0.892235,6.92646 6.6878603,15.55842 12.5925913,17.98792 l -0.07142,-2.01112 z m 11.018481,1.18001 c 10.482259,-0.35841 4.329616,-11.18211 -3.543405,-5.78399 -11.178861,1.40934 -5.123627,10.37648 3.543405,5.78399 z m 166.433126,-0.44734 c 0.69643,-8.80903 -22.45146,-7.15921 -12.83092,-0.16208 3.77209,0.0947 10.5176,4.14457 12.83092,0.16208 z m 8.55141,-4.55152 c 9.40356,-6.91124 -2.89541,-15.34162 -9.45831,-20.60573 -9.92957,-6.06666 -17.24448,-14.83891 -28.07029,-19.821 -6.7301,5.62833 -3.61029,24.38182 9.89841,27.29449 6.56356,5.91165 23.23453,8.13386 20.81836,17.13826 1.22068,5.23011 5.39407,-2.82993 6.81183,-4.00602 z m -127.142403,0.88808 c -2.507001,2.77717 1.772302,4.72929 0,0 z m -32.755278,-2.03883 c 2.257739,-10.98143 -17.299372,5.97342 -2.887749,4.60276 3.703396,-0.28917 2.943969,-2.56944 2.887749,-4.60276 z m 133.065981,0.81765 c 1.22412,-6.44427 -10.24073,-5.41633 -6.42311,0.84448 -0.20404,4.96956 8.84073,4.36527 6.42311,-0.84448 z M 71.135299,204.71642 c 6.512947,-10.65729 -12.52474,-3.37631 -19.062573,-3.53329 -8.919159,-2.70642 -13.182218,10.65508 -3.42423,9.39484 6.706284,0 13.412553,0 20.118822,0 0.789331,-1.95385 1.57865,-3.9077 2.367981,-5.86155 z m 96.326201,1.70964 c 0.87817,-5.72597 -10.71418,-4.12605 -7.0773,-11.25211 1.53755,-5.76253 -1.36214,-8.64551 -9.1857,-7.76431 -11.67545,0.8516 -19.84836,-4.66311 -16.63773,-14.38472 -3.09286,-2.49319 -1.68678,11.94131 -0.68991,15.55926 -1.07956,10.31256 10.74332,9.88323 20.10212,11.57065 -8.46385,-0.84673 -21.96766,-3.39487 -13.42047,7.19017 5.96905,5.8568 22.86431,4.35559 27.07197,0.8866 l -0.16312,-1.80554 z m 9.60545,-0.48846 c -2.50698,2.77714 1.77233,4.7293 0,0 z M 45.882873,200.80871 c 5.788592,-2.03976 2.062833,-15.73363 -4.61218,-7.48278 -6.792703,3.98414 -22.188957,11.63427 -22.775392,14.20479 9.34433,-1.66598 17.959344,-5.30617 27.387572,-6.72201 z m 148.057587,6.89386 c -9.98092,-5.44668 -23.10835,-15.76506 -32.47956,-16.65908 -3.05721,11.09312 11.75724,11.71245 20.95485,14.40403 3.72691,0.98244 7.50638,2.47625 11.52471,2.25505 z m 13.97226,-9.25773 c -9.72231,-11.60875 -24.33749,-19.8075 -36.33036,-29.81079 -6.97287,-4.13166 -15.90356,-13.28352 -19.48656,-15.51358 -4.05311,-1.81063 -18.73542,-12.47388 -8.02482,-3.45117 19.83399,15.37794 40.5506,30.00264 60.42266,45.34838 -1.27958,1.95814 2.98216,9.05386 3.41908,3.42716 z m -144.167137,0.26964 c 15.014138,1.84522 13.060842,-12.8454 14.118915,-20.865 0.2236,-3.91912 -1.857383,-8.55795 -1.150226,-1.88659 3.418957,12.98382 -14.446838,10.63735 -24.699603,12.38536 -4.028579,1.0324 -1.426522,6.83466 -2.552823,9.95484 -0.60435,3.82178 11.38114,-0.1444 14.283737,0.41139 z m 45.453667,-10.60585 c 0,-3.25641 0,-6.51285 0,-9.76928 -15.38232,-3.09557 -4.55776,12.87744 -7.31223,19.53851 9.44349,2.38874 7.22368,-5.08458 7.31223,-9.73736 z m -82.870515,-8.25075 c 15.603165,-12.06049 32.507566,-23.04173 47.223848,-35.8329 -0.04314,6.73965 0.314996,19.32465 4.25464,22.02629 1.1861,-5.1011 2.443629,-16.50069 -1.331569,-17.50665 -0.759402,3.44833 -0.648563,12.47035 -1.565169,3.61815 1.118108,-3.74838 5.966027,-15.20728 -3.191669,-8.7796 -3.291781,6.24566 -16.653221,11.62974 -15.897984,6.31151 2.554508,10.59263 -14.460245,14.58163 -21.036776,22.05439 -9.884468,7.36842 -19.725108,14.78499 -29.0674543,22.599 7.7167453,-4.00438 13.7251983,-9.68552 20.6121333,-14.49019 z m 38.388546,5.97351 c 17.431017,1.408 8.117775,-16.97854 8.739991,-25.27801 0.529901,-6.84277 -2.453548,-15.7127 -10.123722,-6.85193 -5.530218,5.24161 -16.390991,8.62599 -13.85008,16.75293 0,5.55912 0,11.11822 0,16.67733 5.118549,-0.0471 10.174113,-0.75671 15.233811,-1.30032 z m 95.575069,-10.66708 c 3.46539,-10.47982 -5.4031,-16.95126 -14.78317,-22.82844 -5.28242,-5.50367 -7.91623,-4.62724 -7.55995,2.15424 -1.29545,10.02987 -1.35371,20.12624 -1.32939,30.19927 7.44031,-0.76366 24.91748,7.0793 23.7292,-2.04555 -0.0184,-2.49314 -0.0368,-4.98645 -0.0565,-7.47952 z m -60.51601,5.37313 c -3.39231,-8.16009 -0.89056,5.58875 0.0942,1.47635 l -0.0937,-1.47635 z m 13.06031,-0.97693 c -4.09323,-6.69541 -1.60169,11.25228 0,0 z m -13.38691,-5.61733 c -2.10853,-7.06602 -3.0169,6.21883 -0.13693,0.65965 l 0.11076,-0.53265 z m 14.62426,0 c -3.58298,-3.48793 -2.05091,-3.3663 -0.58317,-5.69249 -3.20285,-10.79859 3.14116,-21.96196 0.80553,-32.63894 -2.71486,4.41297 -1.58818,16.07852 -3.64915,16.98977 -2.62026,-12.00591 8.72358,-22.6908 5.13141,-34.64389 -0.64401,-15.59021 -0.90869,-31.203314 -2.56792,-46.75325 -5.9036,-8.338411 -21.92092,-0.685629 -15.925,7.321591 -2.24613,3.958319 -1.19558,14.96255 -0.94813,15.063845 -0.26422,-6.211573 3.55156,-22.87296 14.03856,-14.391182 5.83087,10.139834 2.74241,22.005806 3.52853,32.862766 -0.76082,7.20217 1.31739,24.2173 -13.25741,17.19349 -6.42686,-6.31701 -2.09407,-15.86787 -5.53113,-23.4097 1.48435,9.55181 -4.57084,22.03487 2.89662,29.51128 3.23348,7.13454 1.42005,15.35735 2.77116,22.93002 -2.93268,4.04873 15.04293,2.23956 5.24989,4.39565 -8.70642,-1.96178 -6.29556,11.50578 -3.21483,13.9729 3.12311,-1.69291 12.35775,2.36726 11.25504,-2.71186 z M 99.30555,160.51046 c 0.62935,-3.30563 -1.42845,-18.18665 -1.80452,-7.85073 0.27432,4.5597 -0.76698,15.40778 1.53193,15.92234 0.3088,-2.68295 0.28399,-5.38026 0.2725,-8.07161 z m -9.07252,1.95386 c -2.714086,-5.63459 11.60747,-5.74649 5.06543,-12.41051 0.87667,-4.48862 -1.12419,-19.67027 -8.269448,-12.66842 -1.76813,7.46156 7.242208,22.87443 -6.526618,21.85073 -5.873969,6.34566 6.283659,12.70384 9.940866,5.71897 l -0.046,-1.13658 z m 6.77935,0.73267 c 1.06266,-8.78259 -8.639247,-1.89326 -4.82792,3.65258 4.2078,2.63339 5.92771,-0.26413 4.82792,-3.65258 z m 21.93634,0 c 0.63584,-12.10194 -12.60935,6.61945 -0.98275,4.21145 1.80889,-0.81962 1.95893,-2.89982 0.98275,-4.21145 z m 12.18686,0 c 2.56204,-6.92731 -13.25007,-2.40307 -7.568,-11.15264 0.16863,-5.68641 3.01816,-23.15756 -7.39659,-14.41576 2.0336,6.08069 -6.01351,18.23229 0.68102,20.07994 9.2749,-0.25528 -2.89409,13.7987 10.25986,10.00395 3.87332,0.5436 5.27938,-1.86014 4.02371,-4.51549 z m 2.11926,-11.96734 c -1.44014,4.3432 0.35105,17.3118 0.18012,5.35204 -0.004,-1.7848 -0.049,-3.57008 -0.18012,-5.35204 z m 3.85267,-0.85483 c 2.07963,-3.65088 -3.37433,-18.72228 -3.82956,-8.37455 0.992,4.81702 1.33254,15.92216 3.0732,16.74142 0.71041,-2.75165 0.60413,-5.575 0.75636,-8.36687 z m -51.063286,3.0529 c 2.084728,-7.14269 -10.020798,-4.94527 -6.218851,1.53871 -0.699409,5.5077 9.331515,3.16038 6.218851,-1.53871 z m 44.849196,-0.12085 c 2.01126,-7.51364 -10.06599,-4.70854 -6.04012,2.09593 0.23389,4.94272 8.07353,1.73158 6.04012,-2.09593 z m -46.06787,-7.69462 c -6.77866,-10.10075 -4.882248,9.49944 0,0 z m 46.0901,-0.25416 c 0.023,-7.10549 -11.54346,4.52371 -1.28862,2.11384 l 0.64169,-0.60739 z m -32.68459,-4.99924 c 0.58368,-4.89078 -6.30182,-8.24698 -2.78803,-1.05914 -0.19254,3.30153 2.71994,7.32174 2.78803,1.05914 z m -12.186836,-1.58497 c 0.815907,-9.0124 -12.733177,1.34112 -3.506913,3.71313 3.838394,0.16614 3.833477,-0.80482 3.506913,-3.71313 z m 44.863906,-0.24423 c 0.005,-10.41047 -12.94827,5.4805 -1.70403,2.91996 1.63418,-0.58971 1.39886,-1.85286 1.70403,-2.91996 z m -52.175993,-0.24423 c -4.399297,-3.36606 -4.71559,3.74053 0,0 z m -0.108963,-8.05963 c 0.27645,-5.23464 -0.325333,-6.84611 -2.486348,-0.69996 -2.070863,6.22315 2.582482,10.0307 2.486348,0.69996 z m 56.547066,2.93078 c 0.22607,-4.85409 -4.262,-7.15937 -2.71865,-0.95559 -2.02893,3.04393 4.81704,6.94763 2.71865,0.95559 z m -43.24549,-4.88463 c 0.68701,-7.21834 -2.297214,8.1159 -9.062827,1.63033 3.992608,-2.04912 -3.143714,-2.15395 3.390822,-1.86825 12.439205,-5.05799 -11.963195,-9.50081 -6.141701,0.58005 -4.115012,8.31827 16.817756,8.50388 11.813706,-0.34221 z m 39.21084,1.78953 c 6.20103,-7.34377 -7.02872,-10.15453 -10.49631,-5.02568 -5.57262,-5.38678 -4.56491,12.89982 5.75643,9.8198 5.37208,0.14883 5.05764,-1.04009 4.73988,-4.79412 z m -10.96817,-1.32686 c 2.72522,-5.63077 16.41643,3.47105 2.84226,1.74031 -1.29153,0.13666 -2.87579,-0.60463 -2.84226,-1.74031 z m -12.40676,-1.43959 c -3.64689,-2.16312 -6.39708,-4.8306 0.0558,-2.31246 3.0914,9.19261 6.97464,-6.70614 -1.99999,-2.26206 -15.64784,-2.85133 0.41355,14.1121 1.94429,4.57452 z m -15.62297,-9.52505 c 1.38792,-8.4242 -19.861199,-3.64134 -11.255208,3.83886 4.260575,-0.6822 13.760818,2.75669 11.255208,-3.83886 z m 38.99795,3.05289 c 4.34237,-11.7662 -23.00779,-6.74374 -10.09665,0.64883 3.34854,0.14513 6.98457,0.71742 10.09665,-0.64883 z M 92.13769,108.48919 c 2.09961,-8.616526 -19.226236,-5.02627 -12.130984,3.4355 3.018948,1.90369 15.722754,2.55534 12.130984,-3.4355 z m 37.77926,0 c 2.48652,-7.67099 -16.01834,-5.67035 -11.37342,2.16338 -1.82836,3.83476 16.7999,3.87108 11.37342,-2.16338 z m -17.0648,-42.149147 c -0.85806,-6.040802 -7.81497,-23.627289 -11.54487,-9.794426 -2.12521,5.276016 -7.70324,13.597667 4.05033,10.973913 2.55045,0.0074 5.21827,-0.162815 7.49454,-1.179487 z"
       id="path5" />
    <path
       style="fill:#00ffff;stroke-width:0.521111"
       d="m 11.66033,210.72504 c -3.5331953,-2.78054 -6.8929913,-7.66295 -7.7566243,-11.27181 -0.794027,-3.31802 -0.383935,-3.84289 1.071045,-1.37082 0.612428,1.04054 1.287702,1.89189 1.500608,1.89189 0.212908,0 0.833858,-0.8465 1.37989,-1.8811 1.811583,-3.43256 17.8956673,-16.60535 34.3030363,-28.09405 l 5.725199,-4.00887 0.148098,9.29618 c 0.08146,5.11289 0.01953,9.82014 -0.137638,10.46055 -0.465122,1.89535 -3.481107,4.93382 -5.995896,6.0406 -1.288171,0.56693 -3.278978,1.67159 -4.424018,2.45481 -1.145039,0.78321 -5.36734,3.07308 -9.382889,5.08857 -8.856183,4.44514 -11.327455,6.63023 -12.269114,10.84834 -0.34855,1.56132 -0.772118,2.83861 -0.941261,2.83842 -0.169142,-1.7e-4 -1.618338,-1.03189 -3.220436,-2.29271 z"
       id="path2" />
    <path
       style="fill:#00ffff;stroke-width:0.521111"
       d="m 49.57778,177.14767 c -0.273084,-12.71995 -0.244241,-12.7905 7.509109,-18.3673 3.053659,-2.19644 6.63366,-4.9929 7.955552,-6.21438 1.954133,-1.80567 2.71549,-2.1906 4.07264,-2.05903 2.502441,0.24261 4.007758,3.51769 4.022117,8.75084 0.0059,2.16317 0.474306,6.75048 1.040821,10.19404 1.269143,7.71445 1.271653,9.32985 0.01881,12.09612 -1.287047,2.84178 -3.119885,3.74284 -8.286046,4.07363 -2.290405,0.14665 -6.346679,0.49708 -9.013941,0.77874 -8.026083,0.84754 -7.076435,2.04806 -7.319053,-9.25266 z"
       id="path3" />
    <path
       style="fill:#00ffff;stroke-width:0.521111"
       d="m 51.026537,199.47213 c -1.970861,-0.71713 -1.386441,-10.0324 0.670469,-10.68684 0.487635,-0.15516 4.442552,-0.6236 8.788705,-1.04099 4.346153,-0.41739 8.815801,-1.00553 9.93255,-1.30698 2.59566,-0.70066 5.361758,-2.56837 6.247228,-4.21823 0.611327,-1.13907 0.654161,-0.86458 0.368858,2.36355 -0.653442,7.39354 -2.677515,11.58103 -6.339169,13.11472 -0.934516,0.39142 -3.42022,0.71169 -5.52379,0.71169 -2.103569,0 -5.097306,0.2151 -6.652744,0.47802 -5.046264,0.85297 -6.453793,0.96288 -7.492107,0.58506 z"
       id="path4" />
    <path
       style="fill:#00ffff;stroke-width:0.521111"
       d="m 19.517724,206.57006 c 0,-0.4225 5.937053,-4.06963 13.272052,-8.15302 4.293901,-2.39041 8.576431,-5.01362 9.516737,-5.82936 0.940305,-0.81573 2.281629,-1.48316 2.980719,-1.48316 2.610082,0 4.055763,5.13111 2.231881,7.92155 -0.668329,1.0225 -1.603147,1.46144 -4.152604,1.94978 -1.809564,0.34663 -7.506036,1.78921 -12.658824,3.20572 -8.533966,2.34603 -11.189961,2.91295 -11.189961,2.38849 z"
       id="path6" />
    <path
       style="fill:#00ffff;stroke-width:0.521111"
       d="m 44.510344,209.37578 c -3.172392,-3.18018 1.34064,-8.88987 6.434412,-8.14053 1.178898,0.17343 4.134263,-0.046 6.567471,-0.48755 10.774299,-1.95532 14.573234,-1.90248 14.573234,0.20271 0,0.48071 -0.78569,2.74694 -1.74598,5.03603 l -1.74598,4.16202 -11.516141,0.14039 c -10.958164,0.13359 -11.567059,0.0894 -12.567016,-0.91307 z"
       id="path7" />
    <path
       style="fill:#00ffff;stroke-width:0.521111"
       d="m 35.652377,211.00416 c -2.205355,-0.63852 -1.956821,-2.42277 0.70984,-5.09598 1.858216,-1.86278 2.6577,-2.32168 3.813368,-2.18883 1.361014,0.15646 1.472794,0.34866 1.614922,2.77685 0.09119,1.55798 -0.11845,2.9633 -0.520474,3.48899 -0.783706,1.02479 -3.743374,1.56164 -5.617656,1.01897 z"
       id="path8" />
    <path
       style="fill:#00ffff;stroke-width:0.521111"
       d="m 19.681867,213.5362 c -1.396987,-0.56424 -2.352821,-2.2408 -1.920859,-3.36925 0.360747,-0.9424 2.827242,-2.36637 4.098842,-2.36637 0.457822,0 1.543158,-0.36845 2.411857,-0.81879 3.990215,-2.06848 8.565593,-0.0103 7.494891,3.37143 -0.326066,1.02986 -1.211821,1.44864 -6.048947,2.85986 -3.225686,0.9411 -4.35595,1.0016 -6.035784,0.32312 z"
       id="path9" />
    <path
       style="fill:#00ffff;stroke-width:0.521111"
       d="m 104.7539,240.30302 c -1.83211,-2.02943 -2.63637,-13.50464 -1.14861,-16.38871 2.01583,-3.90779 -0.0227,-5.78911 -7.31785,-6.75369 -6.192883,-0.81882 -7.130552,-1.19338 -6.757626,-2.69937 0.161023,-0.65026 -0.06713,-3.74235 -0.506982,-6.87132 -1.249267,-8.88673 0.13522,-11.78111 5.643258,-11.79762 1.91084,-0.006 2.44194,-0.15077 1.88159,-0.51377 -0.42939,-0.27817 -2.72492,-0.50937 -5.10117,-0.51376 l -4.320468,-0.008 0.07412,9.78285 c 0.04072,5.38056 -0.07623,10.15921 -0.26,10.61921 -0.183757,0.46002 -2.161872,1.66041 -4.395806,2.66754 l -4.061704,1.83115 -0.259956,2.31199 c -0.379677,3.37675 0.365045,11.56957 1.073176,11.80619 0.906049,0.30275 0.713899,1.73945 -0.499507,3.73477 -2.029676,3.33756 -2.304327,1.3576 -2.121259,-15.29222 0.169532,-15.41857 -0.06207,-19.31828 -1.126676,-18.97099 -0.821353,0.26795 -2.688616,5.08779 -3.684248,9.50994 l -0.822296,3.65226 0.237127,-3.65226 c 0.168781,-2.5996 1.077651,-6.13355 3.153357,-12.26116 3.932925,-11.61025 4.914679,-16.214 4.928471,-23.11123 0.01044,-5.22519 0.100636,-5.72213 1.247097,-6.8714 0.76731,-0.76921 2.166345,-1.37876 3.690274,-1.60785 3.291969,-0.49487 8.196848,0.11083 8.941258,1.10416 0.32742,0.43691 1.43653,3.33293 2.46467,6.43559 1.88157,5.67806 3.59492,13.95683 5.44105,26.29067 0.94063,6.28417 1.30978,7.66473 1.89317,7.07991 0.233,-0.23358 -0.30902,-3.72826 -1.06396,-6.85981 -0.72461,-3.00576 3.59949,-4.85708 5.75855,-2.46546 0.78233,0.86657 0.88456,1.60252 0.61888,4.45469 -0.17505,1.87912 -0.12044,3.29406 0.12132,3.14426 0.24176,-0.14978 0.54134,-1.62613 0.66573,-3.28075 0.32585,-4.33457 1.6725,-6.82559 4.30028,-7.95478 3.64203,-1.56498 5.18531,-1.72841 6.46946,-0.68508 1.08725,0.88336 1.16114,1.4026 1.32097,9.28372 0.13416,6.61549 0.006,8.70529 -0.61715,10.06943 -0.72316,1.58293 -0.91677,1.68786 -2.40649,1.30438 -0.89103,-0.22937 -2.83266,-0.41703 -4.31472,-0.41703 -3.30662,0 -5.15341,1.20735 -6.80583,4.44935 -1.11289,2.18344 -1.15672,2.70277 -0.85616,10.14361 0.17423,4.31329 0.10639,8.38406 -0.15075,9.04614 -0.44941,1.15715 -0.50074,1.16701 -1.32457,0.25445 z"
       id="path10" />
    <path
       style="fill:#00ffff;stroke-width:0.521111"
       d=""
       id="path11" />
    <path
       style="fill:#00ffff;stroke-width:0.521111"
       d=""
       id="path12" />
    <path
       style="fill:#00ffff;stroke-width:0.521111"
       d="m 136.93568,229.63838 c -0.21839,-0.75909 -0.44697,-6.394 -0.50794,-12.52204 -0.0609,-6.12805 -0.30542,-11.5643 -0.54324,-12.08057 -0.23779,-0.51628 -0.8092,-0.86594 -1.26978,-0.77701 -1.13582,0.21927 -1.61575,3.38064 -1.25898,8.293 0.31697,4.36418 0.24621,4.49211 -2.87456,5.19769 -2.93875,0.66442 -4.99121,-0.47484 -6.10031,-3.38609 -0.78572,-2.06245 -0.86653,-3.36669 -0.55587,-8.97182 0.31045,-5.60133 0.23959,-6.74815 -0.48558,-7.85761 -1.25772,-1.92424 -4.00138,-2.86396 -7.94349,-2.7207 -3.17657,0.11544 -3.43704,0.039 -3.8849,-1.1403 -0.73603,-1.93808 -0.12949,-5.35614 2.18281,-12.30073 1.54558,-4.64184 2.11132,-7.19331 2.11132,-9.52196 v -3.18103 h 6.15494 c 5.7109,0 6.23409,0.0847 7.25195,1.17395 1.80095,1.92725 2.21715,3.81231 2.54927,11.54625 0.31468,7.32742 0.33114,7.40531 3.04728,14.41088 3.91718,10.10333 4.64866,13.28401 4.61962,20.08743 -0.015,3.49416 -0.28844,6.35157 -0.6992,7.30452 -0.37109,0.8609 -0.83704,2.97399 -1.03547,4.69576 -0.30054,2.60795 -0.42705,2.90013 -0.75787,1.75038 z m 1.20506,-16.22898 c -0.0397,-2.4318 -0.0962,-2.56626 -0.50379,-1.19816 -0.40968,1.37527 -0.18537,3.93736 0.34472,3.93736 0.11209,0 0.18368,-1.23264 0.15907,-2.7392 z"
       id="path13" />
    <path
       style="fill:#00ffff;stroke-width:0.521111"
       d=""
       id="path14" />
    <path
       style="fill:#00ffff;stroke-width:0.521111"
       d="m 163.42841,257.51987 c -1.14505,-0.11725 -6.06352,-1.11892 -10.92993,-2.22594 -4.86642,-1.10702 -10.05448,-2.16884 -11.52902,-2.35961 -1.83477,-0.23736 -3.04483,-0.73508 -3.83371,-1.57687 -1.31509,-1.40329 -1.88371,-4.88068 -1.29419,-7.91473 0.32574,-1.67654 0.45275,-1.82517 0.80814,-0.94567 0.23191,0.57392 0.44172,1.98265 0.46623,3.13051 0.0862,4.03828 0.91056,3.54126 1.20225,-0.72488 0.2066,-3.02161 0.6281,-4.81025 1.51218,-6.41686 1.47187,-2.67475 3.55439,-3.67127 4.97634,-2.38127 0.51014,0.4628 1.57539,1.08839 2.36722,1.39018 1.21236,0.46208 1.61296,0.375 2.53712,-0.55142 0.99197,-0.9944 1.06402,-1.46986 0.74967,-4.94728 -0.30053,-3.32463 -0.23462,-3.84714 0.48536,-3.84714 0.45823,0 0.70415,0.20921 0.54649,0.46493 -0.29831,0.48386 2.76258,3.48035 5.17123,5.06244 0.98111,0.64442 1.4952,0.73892 1.75218,0.32209 0.24547,-0.39816 0.86546,-0.16434 1.90735,0.71932 1.35483,1.14908 1.40042,1.26985 0.3726,0.98731 -3.42827,-0.94237 0.85801,3.71743 7.91015,8.59946 5.56294,3.8511 7.05344,5.40529 7.05344,7.35484 0,1.57328 -1.46398,3.86262 -3.06326,4.79032 -1.51174,0.87691 -5.97163,1.39756 -9.16784,1.07027 z"
       id="path15" />
    <path
       style="fill:#00ffff;stroke-width:0.521111"
       d="m 157.44297,258.96606 c -0.71565,-0.21901 -2.3479,-0.9342 -3.62721,-1.58932 -1.71448,-0.87794 -3.83547,-1.3212 -8.06732,-1.68596 -10.45241,-0.90095 -11.15869,-1.25914 -12.23294,-6.20391 -0.33646,-1.5487 -1.23851,-4.57673 -2.00454,-6.72895 -1.4594,-4.1002 -2.60765,-5.00425 -3.31351,-2.60875 -0.21138,0.7174 -0.68545,2.35234 -1.05348,3.63321 -0.99303,3.45617 -3.96809,5.39959 -8.6739,5.66615 -2.84242,0.16101 -3.95878,-0.0159 -5.69204,-0.9024 -2.30758,-1.18013 -3.73901,-3.30926 -3.73901,-5.56142 v -1.39031 l -1.43131,0.94227 c -0.78722,0.51825 -2.96024,1.82684 -4.82896,2.90797 -3.27875,1.89691 -3.46802,1.94146 -5.40819,1.27283 -2.1669,-0.74679 -4.10744,-0.53648 -3.79551,0.41134 0.10603,0.32216 0.9939,0.70316 1.97305,0.84665 l 1.78029,0.26088 -2.14228,0.65218 c -4.22928,1.28752 -8.045708,0.62205 -10.166482,-1.77273 -0.657562,-0.74252 -2.524715,-6.50465 -2.524715,-7.79139 0,-0.12031 -0.457414,-0.21874 -1.016479,-0.21874 -0.693335,0 -1.181507,0.53907 -1.535584,1.6957 -0.285506,0.93262 -1.24262,3.67592 -2.126923,6.09622 -3.262382,8.92898 -4.709711,10.22193 -9.559573,8.53987 l -2.848002,-0.98777 2.517545,-0.89634 c 2.565042,-0.91327 5.173903,-3.38865 5.2335,-4.96575 0.02346,-0.62117 0.16878,-0.53438 0.503701,0.30092 0.698811,1.74282 1.42678,1.43034 2.127163,-0.91307 0.484684,-1.62171 0.484684,-2.55231 0,-4.17402 -0.65535,-2.19273 -2.143382,-2.8958 -2.143382,-1.01271 0,0.59086 -0.234213,0.92919 -0.520473,0.75184 -0.286261,-0.17735 -0.520834,-1.07167 -0.521282,-1.98736 -0.0011,-2.23502 -1.523455,-5.14885 -3.122025,-5.97558 -0.71565,-0.37011 -1.992535,-0.54587 -2.837518,-0.39055 l -1.536335,0.28237 1.368691,-1.44283 c 2.076959,-2.18946 3.424781,-6.26282 4.856161,-14.67614 1.227002,-7.21204 2.970347,-13.8591 3.902311,-14.87878 0.892105,-0.9761 1.161262,4.05537 0.875171,16.35982 -0.29555,12.71126 -0.02803,17.27325 1.077898,18.3819 1.410909,1.41438 3.355916,-2.74736 4.043772,-8.65247 0.286681,-2.46114 0.217945,-3.01983 -0.348263,-2.83063 -0.387993,0.12964 -0.859972,0.99315 -1.048843,1.91888 -0.568772,2.78782 -0.97813,2.50352 -1.095923,-0.76115 -0.167275,-4.63603 0.102288,-8.18663 0.673956,-8.87716 0.280751,-0.3391 1.89271,-1.13476 3.582127,-1.76811 4.684194,-1.75607 4.87844,-2.11856 4.828841,-9.0109 l -0.04225,-5.86617 0.733051,4.69576 c 0.403173,2.58267 0.611458,5.44052 0.462856,6.35076 -0.153948,0.94301 -0.02082,1.80949 0.30938,2.01408 0.318766,0.19749 2.937398,0.68945 5.819208,1.09322 8.09934,1.13482 9.60427,2.24755 7.96583,5.88988 -0.82732,1.83917 -0.9149,2.96718 -0.63579,8.18821 0.34121,6.38215 1.35304,9.70351 3.05181,10.01758 1.26953,0.23472 1.68817,-3.44003 1.27485,-11.19055 -0.28047,-5.25943 -0.19105,-6.77042 0.50376,-8.51117 1.65103,-4.13649 5.35395,-5.90778 9.93366,-4.75176 2.20931,0.55768 2.51407,0.51623 3.5044,-0.47656 1.02676,-1.02931 1.0801,-1.59491 0.99935,-10.59479 -0.0849,-9.45602 -0.0799,-9.50074 0.91567,-8.26969 0.91015,1.12543 0.97112,1.81192 0.67187,7.56539 -0.37185,7.14947 0.12561,9.90796 2.12654,11.79236 1.42726,1.34414 4.54734,1.60386 7.1597,0.59598 l 1.41997,-0.54783 -0.11374,-5.97896 c -0.11507,-6.04914 0.15199,-7.29211 1.31614,-6.12565 0.46442,0.46536 0.67431,3.95706 0.75908,12.62773 0.11157,11.41384 0.43497,14.05146 1.7228,14.05146 0.27619,0 0.50217,-1.01184 0.50217,-2.24855 0,-1.23669 0.49945,-4.22845 1.10988,-6.64834 0.90799,-3.59945 1.05035,-5.25472 0.78258,-9.09955 -0.18002,-2.58486 -0.477,-5.40411 -0.65996,-6.265 l -0.33267,-1.56525 1.12335,1.40177 c 0.61784,0.77098 2.46474,1.9395 4.10422,2.59672 2.61011,1.04634 3.88718,1.19493 10.26748,1.19462 6.676,-2.7e-4 7.55922,-0.11447 10.53957,-1.36215 2.90596,-1.21652 3.25295,-1.26557 3.25295,-0.45979 0,2.3011 4.67397,3.60824 6.46874,1.80907 0.91428,-0.91652 0.96253,-1.58705 0.34463,-4.78893 -0.50366,-2.60992 -0.51048,-2.60788 4.49957,-1.3463 l 3.45955,0.87114 -1.9967,0.69297 c -1.09819,0.38114 -2.296,0.94199 -2.66181,1.24632 -0.49985,0.41586 -0.70742,0.28138 -0.83541,-0.54127 -0.25161,-1.61732 -1.18584,-1.53541 -1.37593,0.12064 -0.10507,0.91542 0.0833,1.44209 0.52047,1.45492 0.37685,0.0111 1.15734,0.77411 1.73441,1.69568 0.88621,1.41523 1.69497,1.85835 5.20474,2.85167 l 4.15547,1.17607 -3.12283,-0.25324 c -1.71757,-0.13927 -6.40182,-0.6007 -10.40945,-1.02539 -9.77427,-1.0358 -29.78342,-1.3053 -31.32324,-0.42187 -2.57127,1.47518 -2.09376,5.0819 1.06333,8.03179 1.18491,1.10714 3.84584,3.23253 5.91318,4.72311 2.06733,1.49058 3.67727,2.79186 3.57763,2.89174 -0.0996,0.0999 -1.02698,-0.22271 -2.06073,-0.71689 -1.03376,-0.49417 -1.96469,-0.79772 -2.06874,-0.67455 -0.10405,0.12318 0.0505,1.90558 0.34347,3.96088 0.46482,3.26084 0.41647,3.9147 -0.3794,5.13234 -0.50165,0.76749 -1.04384,1.26334 -1.20489,1.10188 -0.16106,-0.16143 -0.006,-0.63896 0.34271,-1.06117 0.75635,-0.91359 0.26849,-6.10144 -0.76428,-8.12734 -1.04277,-2.04552 -3.08049,-3.6866 -4.72451,-3.8049 -1.3642,-0.0982 -1.52044,0.0618 -1.67746,1.71788 -0.21005,2.21534 0.71035,5.49112 2.08901,7.43496 l 1.01762,1.43483 h -1.26566 c -1.86207,0 -3.90654,2.36902 -4.9092,5.68858 -0.63034,2.08686 -0.93531,2.58527 -1.06856,1.74637 -0.10256,-0.64567 -0.39616,-1.17394 -0.65244,-1.17394 -1.58879,0 -2.13161,6.73806 -0.75744,9.40197 0.97462,1.88931 1.89407,2.39577 5.19934,2.86392 1.43131,0.20273 6.11555,1.18618 10.40946,2.18545 8.1462,1.89577 13.98455,2.68727 17.95631,2.43431 l 2.34212,-0.14916 -2.08189,0.7223 c -2.22564,0.77219 -10.07613,0.97412 -12.23111,0.3146 z m -66.3629,-12.02985 c 0.35631,-0.57792 -2.214154,-1.15797 -3.424692,-0.77282 -1.11973,0.35626 -1.341592,1.60605 -0.346095,1.94963 0.752329,0.25964 3.393337,-0.56457 3.770787,-1.17681 z m 29.52065,1.017 c 1.06313,-0.29599 2.08787,-0.78942 2.27719,-1.09649 0.22554,-0.36584 -0.0371,-0.43701 -0.76191,-0.2064 -2.55753,0.81372 -3.83799,-0.67353 -4.52794,-5.25922 l -0.38311,-2.54631 -0.64533,2.087 c -0.5689,1.83986 -0.65178,1.91709 -0.69989,0.65219 -0.0497,-1.30699 -0.23286,-1.43481 -2.0558,-1.43481 -1.36227,0 -2.31227,0.34455 -2.97546,1.07916 -0.89584,0.99234 -0.90993,1.19171 -0.17513,2.47831 0.79369,1.38969 1.48641,1.58532 3.16395,0.89343 0.69997,-0.28869 0.90793,-0.0177 1.04095,1.35636 0.12751,1.31735 0.46914,1.80089 1.46739,2.07693 1.87893,0.51957 2.13846,0.51471 4.27509,-0.0802 z m -31.860133,-5.42537 c 0,-3.52964 -0.781799,-4.14946 -1.634631,-1.29597 -0.611264,2.04524 -0.67029,2.09306 -1.145617,0.92813 -0.431142,-1.05664 -0.532447,-1.09707 -0.725193,-0.28949 -0.312236,1.30819 1.237605,3.49616 2.476492,3.49616 0.898873,0 1.028949,-0.35886 1.028949,-2.83883 z m 35.290533,-0.12045 c -0.21151,-3.24995 -1.45982,-3.73098 -1.45982,-0.56253 0,1.26741 0.15615,2.46092 0.34699,2.65224 0.87366,0.87581 1.25876,0.15268 1.11283,-2.08971 z m -29.50861,0.1861 c 0.48741,-1.82697 -0.17097,-4.22779 -1.21467,-4.4294 -0.59654,-0.11521 -0.91909,0.41216 -1.1728,1.91752 -0.59822,3.54955 1.51694,5.77493 2.38747,2.51188 z m 2.54564,-0.0964 c 0,-1.00437 -0.2069,-1.82613 -0.45977,-1.82613 -0.60048,0 -1.10946,1.98125 -0.75012,2.91995 0.52208,1.3639 1.20989,0.74207 1.20989,-1.09382 z m 2.60236,0.29166 c 0,-0.84395 -0.22734,-1.67531 -0.50521,-1.84746 -0.60459,-0.37458 -1.29997,2.04269 -0.81426,2.83052 0.64598,1.04779 1.31947,0.54601 1.31947,-0.98306 z m 21.64612,0.23009 c 0.4328,-1.72865 -0.14746,-3.91314 -1.03944,-3.91314 -0.80848,0 -1.54138,3.06488 -1.04375,4.36485 0.4928,1.28736 1.71408,1.02255 2.08319,-0.45171 z m -29.97369,-0.77075 c 0,-1.44879 -0.56726,-2.65323 -1.09547,-2.32597 -0.532745,0.33006 -0.634345,3.01486 -0.13311,3.51733 0.53406,0.53537 1.22858,-0.13811 1.22858,-1.19136 z m 42.40734,-6.92509 c 0.18584,-2.08048 0.26438,-6.59732 0.17453,-10.03741 -0.14535,-5.56577 -0.26794,-6.27481 -1.1129,-6.43719 -1.65415,-0.31788 -2.95399,1.39955 -2.95399,3.903 0,1.24685 0.23421,2.26701 0.52048,2.26701 0.28625,0 0.52405,-0.29348 0.52842,-0.65219 0.005,-0.4348 0.17616,-0.39131 0.51251,0.13045 0.27751,0.43043 0.50812,3.52218 0.51251,6.87052 0.005,3.34835 0.15013,6.4593 0.32389,6.91321 0.65603,1.71377 1.16778,0.70112 1.49455,-2.9574 z m -48.890809,-1.30347 c -0.168942,-0.44135 -0.470362,-0.63886 -0.669814,-0.43891 -0.42209,0.42313 -0.191696,3.97603 0.307532,4.74246 0.438051,0.67251 0.767774,-3.24428 0.362282,-4.30355 z m 15.765009,1.99217 c 0.26362,-1.80488 -0.36155,-3.68877 -1.22413,-3.68877 -0.56215,0 -0.77078,0.61197 -0.77078,2.26092 0,1.24351 0.16102,2.42234 0.35782,2.61964 0.63101,0.63257 1.45861,0.0301 1.63709,-1.19179 z m 11.22145,0.18169 c 0.47866,-1.25044 0.37789,-3.87046 -0.14887,-3.87046 -0.63372,0 -1.09663,1.33948 -1.09663,3.17319 0,1.63721 0.72938,2.04556 1.2455,0.69727 z m 15.62916,-0.56087 c 0.43592,-1.13879 -0.22064,-3.30959 -1.00098,-3.30959 -1.06945,0 -1.8588,3.44037 -0.98932,4.31198 0.47282,0.47399 1.65259,-0.12019 1.9903,-1.00239 z m -32.9446,-0.8957 c 0.41126,-0.90486 0.39877,-1.54574 -0.0464,-2.37959 -0.78922,-1.47831 -1.79411,-1.12704 -2.0089,0.7022 -0.33497,2.85272 1.01889,3.95764 2.0553,1.67739 z m 36.56698,-0.931 c 0.40073,-2.00864 -0.14973,-6.7004 -0.78613,-6.7004 -0.24939,0 -0.45342,2.00956 -0.45342,4.46568 0,4.4105 0.59238,5.47847 1.23955,2.23472 z m -42.619911,0.0951 c 0.352284,-1.60785 0.03963,-2.62148 -0.808638,-2.62148 -0.269361,0 -0.489756,0.93915 -0.489756,2.08701 0,2.44281 0.807458,2.77522 1.298394,0.53447 z m 8.590591,-0.0127 c 0,-1.6384 -0.85836,-2.12759 -1.3732,-0.78264 -0.37228,0.97252 0.11768,2.34789 0.83639,2.34789 0.29524,0 0.53681,-0.70436 0.53681,-1.56525 z m 18.47965,1.03883 c 0.40683,-0.65989 -0.17819,-2.60409 -0.78359,-2.60409 -0.6054,0 -1.19042,1.9442 -0.78359,2.60409 0.17851,0.28953 0.53111,0.52642 0.78359,0.52642 0.25247,0 0.60509,-0.23689 0.78359,-0.52642 z m 5.79479,-0.25737 c 0.46215,-1.20733 -0.26113,-3.39022 -1.12334,-3.39022 -0.52657,0 -0.77079,0.55102 -0.77079,1.73917 0,0.95654 0.15615,1.8957 0.34699,2.087 0.57627,0.5777 1.22959,0.3936 1.54714,-0.43595 z m 2.69458,-0.61079 c -0.23987,-2.03124 -1.46587,-2.21035 -1.46587,-0.21415 0,1.11247 0.2515,1.60873 0.81528,1.60873 0.57779,0 0.76731,-0.40624 0.65059,-1.39458 z m -32.78814,-0.26024 c -0.2062,-1.40482 -1.226578,-1.81414 -1.6653,-0.66803 -0.407642,1.06491 0.01965,1.8011 1.04542,1.8011 0.511,0 0.72798,-0.39663 0.61988,-1.13307 z m -16.043637,-6.56276 c -0.003,-7.42532 -0.588417,-11.08722 -1.772469,-11.08722 -0.87889,0 -1.347463,3.38771 -1.347463,9.74198 0,5.23156 0.89362,8.51932 2.31557,8.51932 0.690375,0 0.806844,-1.03881 0.804362,-7.17408 z m 42.681657,5.56534 c 0,-1.9962 -1.22601,-1.81709 -1.46588,0.21416 -0.1167,0.98833 0.0728,1.39458 0.6506,1.39458 0.56378,0 0.81528,-0.49626 0.81528,-1.60874 z m -17.69607,-3.5709 c 0,-1.59228 -0.30575,-2.29025 -1.37137,-3.13052 l -1.37137,-1.08138 h 1.58904 c 2.33283,0 3.23558,-0.49268 3.23558,-1.76585 0,-3.3254 -4.16824,-5.28554 -11.19015,-5.26223 -5.157188,0.0171 -9.628742,1.4664 -9.628742,3.12077 0,0.60969 -0.291762,0.7543 -1.040945,0.51594 -2.677845,-0.85201 0.760944,2.98405 3.548171,3.95807 1.57017,0.54872 1.627408,0.64642 0.76594,1.30763 -1.61325,1.23823 0.137808,1.87466 4.29897,1.56249 3.294616,-0.24717 3.984356,-0.12132 6.766136,1.23449 4.13878,2.01719 4.39874,1.99005 4.39874,-0.45941 z m 24.41497,0.47165 c 2.12097,-0.27599 3.96785,-0.61359 4.10417,-0.75025 0.53761,-0.53893 -1.54924,-2.89572 -2.89245,-3.26661 -1.29961,-0.35884 -1.21905,-0.41683 0.91741,-0.66047 2.30482,-0.26284 2.33982,-0.29561 2.1972,-2.05765 -0.35501,-4.38587 -4.37396,-5.51913 -14.7359,-4.15524 -2.40716,0.31684 -4.52207,0.72771 -4.69982,0.91306 -0.17773,0.18535 -0.47406,0.97907 -0.65851,1.76385 -0.55503,2.3615 1.08756,3.52503 5.01534,3.55261 l 3.25295,0.0228 -2.60236,0.89023 c -1.57155,0.5376 -2.60237,1.20023 -2.60237,1.67285 0,0.62218 1.01369,0.83688 4.94449,1.04725 4.60845,0.24664 4.82069,0.30549 3.12284,0.86601 -1.5593,0.51477 -1.63427,0.60584 -0.52048,0.63234 0.71565,0.017 3.03652,-0.19485 5.15749,-0.47083 z M 75.208296,210.40932 c 0,-0.86089 -0.241562,-1.56525 -0.536808,-1.56525 -0.718714,0 -1.208664,1.37536 -0.836393,2.34788 0.514845,1.34497 1.373201,0.85576 1.373201,-0.78263 z"
       id="path16" />
    <path
       style="fill:#00ffff;stroke-width:0.521111"
       d="m 145.28958,234.36424 c -2.28107,-2.28667 -3.45184,-4.95477 -3.45789,-7.88026 -0.005,-1.92527 0.88053,-2.30742 2.5213,-1.0893 2.24055,1.66338 3.57362,4.09558 3.96474,7.23368 0.52158,4.18482 -0.18256,4.58846 -3.02815,1.73588 z"
       id="path17" />
    <path
       style="fill:#00ffff;stroke-width:0.521111"
       d="m 39.468957,257.3162 c -2.548543,-0.73966 -4.337053,-3.22025 -4.337053,-6.01532 0,-2.61754 1.411476,-5.97812 2.065382,-4.91747 0.311325,0.50497 0.728084,0.47278 1.899214,-0.14669 1.353569,-0.71597 10.569795,-8.11824 17.129961,-13.75839 2.697321,-2.31905 2.939232,-3.644 0.324558,-1.77761 -1.973561,1.40875 -2.602806,1.41041 -1.332694,0.004 1.043135,-1.1555 3.426104,-2.55536 4.349946,-2.55536 0.34107,0 0.546319,1.76837 0.546319,4.70696 0,4.49262 0.05823,4.73355 1.278966,5.29111 1.119391,0.51129 1.511287,0.3797 3.140949,-1.05468 1.024088,-0.90138 2.29067,-1.63886 2.814623,-1.63886 1.576242,0 3.639225,2.02001 4.158184,4.07157 1.920815,7.5934 1.907101,8.73196 -0.132263,10.97955 -2.320691,2.55768 -5.16727,3.46068 -19.115375,6.0639 -7.420441,1.38491 -10.06308,1.5394 -12.790717,0.74777 z"
       id="path18" />
    <path
       style="fill:#00ffff;stroke-width:0.521111"
       d="m 62.315362,232.3499 c 0.258362,-3.61986 0.263033,-3.62917 3.134533,-6.26001 1.58168,-1.44912 3.358741,-3.63306 3.949024,-4.85322 0.944716,-1.95278 1.076347,-2.05661 1.099182,-0.86708 0.03567,1.85808 -1.805394,8.90554 -2.876192,11.00984 -0.984859,1.93541 -3.745619,4.54217 -4.844773,4.57452 -0.570621,0.0168 -0.66669,-0.73301 -0.461774,-3.60405 z"
       id="path19" />
    <path
       style="fill:#00ffff;stroke-width:0.521111"
       d="m 104.25024,238.71435 c -0.68759,-1.64644 -0.82659,-12.77569 -0.20366,-16.30608 0.34669,-1.96476 0.25677,-2.48762 -0.54947,-3.19497 -1.17744,-1.03303 -3.74944,-1.85414 -7.20967,-2.30169 -1.43131,-0.18513 -3.4312,-0.54563 -4.44423,-0.80114 l -1.841864,-0.46451 -0.647345,-6.92277 c -0.356036,-3.80752 -0.491897,-7.69299 -0.301901,-8.63439 0.455359,-2.25627 2.34436,-3.66872 5.46079,-4.08314 4.08694,-0.54349 2.38616,-1.24887 -3.01117,-1.24887 h -4.98453 l 0.314785,5.8697 c 0.173132,3.22834 0.146418,7.86541 -0.05937,10.3046 l -0.374156,4.43488 -4.032958,2.087 c -3.581353,1.85331 -4.070007,2.28404 -4.363771,3.84654 -0.438033,2.32985 0.213413,10.71909 0.959901,12.36147 0.47781,1.05125 0.40723,1.66799 -0.370909,3.24106 l -0.961009,1.94275 -0.400003,-2.08701 c -0.22,-1.14785 -0.413501,-8.81797 -0.429997,-17.04469 -0.01651,-8.22673 -0.17216,-15.32906 -0.345917,-15.78298 -0.602985,-1.57522 -1.698803,-0.81075 -2.743419,1.91389 -1.921635,5.01213 -1.138164,1.44596 1.500539,-6.83008 3.16035,-9.91213 4.162721,-14.48172 4.081206,-18.6053 l -0.06188,-3.1305 -0.431403,4.17401 c -0.585864,5.66849 -1.574012,8.722 -1.181907,3.65225 0.664517,-8.5919 0.368178,-12.78291 -0.903848,-12.78291 -0.380442,0 -0.442472,1.38166 -0.195472,4.35412 l 0.361804,4.3541 -1.670182,1.90691 c -1.99617,2.2791 -3.271321,2.59253 -1.379897,0.33917 2.019205,-2.40558 2.219433,-5.39592 0.924507,-13.80715 -0.619921,-4.02672 -1.103969,-8.61263 -1.075666,-10.19093 l 0.05146,-2.86964 0.732554,3.3883 c 1.026033,4.74571 3.866351,8.32117 3.870888,4.87277 l 0.0018,-1.4783 1.015983,1.67036 c 0.558793,0.9187 1.787534,2.07434 2.730538,2.56809 l 1.714552,0.89772 -1.668213,0.44086 c -2.356242,0.62265 -3.277751,2.20901 -3.268308,5.62628 0.0056,2.0545 0.153083,2.65888 0.512503,2.10136 0.277492,-0.43045 0.50812,-1.52649 0.512503,-2.43565 0.01146,-2.37448 0.460786,-3.24174 2.127087,-4.10555 1.481168,-0.76782 7.462164,-1.04169 9.686965,-0.44356 2.61199,0.70222 6.31448,14.24088 9.2903,33.97131 0.56799,3.76591 1.17072,6.09338 1.68894,6.52188 0.71908,0.59459 0.75981,0.32946 0.3786,-2.46422 -0.79456,-5.82276 -0.68742,-6.67743 0.93566,-7.46382 1.26052,-0.61074 1.63229,-0.59311 2.73248,0.12953 1.14954,0.75507 1.27345,1.19064 1.27345,4.47669 0,2.00212 0.20592,3.64023 0.4576,3.64023 0.25168,0 0.70752,-1.68803 1.01298,-3.75117 0.65115,-4.39787 1.65674,-5.99417 4.78573,-7.59693 2.64898,-1.35689 4.06954,-1.4709 5.47658,-0.43952 0.89309,0.65464 1.02345,1.56955 1.20024,8.4235 0.12507,4.84858 -0.0219,8.42571 -0.3976,9.68307 l -0.59596,1.99399 -4.01801,-0.2797 c -5.02715,-0.34993 -7.04628,0.54878 -8.80401,3.91867 -1.11399,2.13569 -1.19943,2.92551 -1.19943,11.08721 0,8.80786 -0.37221,10.45069 -1.66594,7.3529 z"
       id="path20" />
    <path
       style="fill:#00ffff;stroke-width:0.521111"
       d="m 73.646879,233.10831 c -0.918139,-1.10943 -1.363396,-9.15494 -0.761514,-13.7601 l 0.384085,-2.93873 0.723667,1.7276 c 0.526349,1.25653 0.68424,3.66175 0.57907,8.8211 -0.130217,6.38797 -0.22225,6.99967 -0.925308,6.15013 z"
       id="path21" />
    <path
       style="fill:#00ffff;stroke-width:0.521111"
       d="m 83.721381,224.76158 c -3.008429,-1.26805 -2.695657,-3.59878 0.707308,-5.27076 1.466114,-0.72034 3.167503,-0.97119 6.654021,-0.98107 3.97975,-0.0113 5.07116,0.18291 7.25677,1.2911 2.81893,1.42933 3.75301,2.533 3.25185,3.84222 -0.27926,0.72951 -1.3075,0.85356 -7.07533,0.85356 -3.71173,0 -7.300939,0.21051 -7.976034,0.46781 -0.813791,0.31016 -1.763642,0.2418 -2.818585,-0.20286 z"
       id="path22" />
    <path
       style="fill:#00ffff;stroke-width:0.521111"
       d="m 83.399941,224.16852 c -1.679077,-0.88192 -1.808149,-1.89707 -0.418351,-3.29028 1.395206,-1.39864 4.321892,-2.11455 8.65839,-2.11797 2.98632,-0.003 4.21282,0.26758 6.5059,1.4319 1.91766,0.9737 2.87707,1.79532 2.9853,2.55654 0.15245,1.0722 -0.0889,1.13581 -5.46495,1.44086 -3.09346,0.17551 -6.798139,0.41105 -8.232629,0.5234 -1.627252,0.12746 -3.144281,-0.0773 -4.03366,-0.54445 z"
       id="path23" />
    <path
       style="fill:#00ffff;stroke-width:0.521111"
       d="m 110.0922,223.46539 c -0.77056,-0.77245 -0.91931,-1.32889 -0.59279,-2.21744 0.36631,-0.99683 1.0499,-1.28512 4.28165,-1.80566 8.80174,-1.41772 13.57701,-0.54607 14.43959,2.63573 0.24392,0.89979 0.34696,1.81207 0.22896,2.02729 -0.11799,0.21521 -4.06523,0.39132 -8.77163,0.39132 -7.82916,0 -8.64458,-0.0878 -9.58578,-1.03124 z"
       id="path24" />
    <path
       style="fill:#00ffff;stroke-width:0.521111"
       d="m 156.92249,258.70194 c -1.0019,-0.38843 -2.99957,-1.17924 -4.43926,-1.75735 -1.72358,-0.69212 -4.77388,-1.2139 -8.93091,-1.52772 -7.40728,-0.55919 -8.67914,-1.14952 -9.56433,-4.43926 -0.32848,-1.22075 -1.33357,-4.45003 -2.23354,-7.17619 -1.68854,-5.11491 -2.79212,-6.24804 -3.557,-3.65225 -0.21138,0.7174 -0.68545,2.35234 -1.05348,3.63321 -0.99303,3.45617 -3.96809,5.39959 -8.6739,5.66615 -2.84242,0.16101 -3.95878,-0.0159 -5.69204,-0.9024 -2.30452,-1.17855 -3.73901,-3.30888 -3.73901,-5.55266 v -1.38153 l -1.69155,1.10901 c -0.93033,0.60996 -3.10247,1.9149 -4.82696,2.89989 -3.00244,1.71493 -3.22079,1.76147 -5.14794,1.09731 -2.16862,-0.74737 -4.10955,-0.53748 -3.79752,0.41066 0.10603,0.32216 0.9939,0.70316 1.97305,0.84665 l 1.78029,0.26088 -2.14228,0.65218 c -4.22928,1.28752 -8.045708,0.62205 -10.166482,-1.77273 -0.657562,-0.74252 -2.524715,-6.50465 -2.524715,-7.79139 0,-0.12031 -0.452641,-0.21874 -1.005872,-0.21874 -0.593203,0 -1.148403,0.48162 -1.353288,1.17394 -0.191082,0.64567 -1.165836,3.40443 -2.166125,6.13059 -3.519001,9.59055 -4.77791,10.73897 -9.845482,8.98141 -2.932366,-1.01702 -2.954218,-1.03934 -1.361241,-1.39007 2.356236,-0.5188 5.763058,-3.17714 6.173716,-4.81734 0.342727,-1.36889 0.365119,-1.37657 0.775054,-0.26569 0.647398,1.75438 1.395973,1.36927 2.046594,-1.05289 0.44,-1.63805 0.439788,-2.69974 -7.93e-4,-4.17401 -0.627579,-2.09981 -2.110561,-2.73423 -2.110561,-0.90289 0,2.02971 -0.903956,0.51274 -1.249222,-2.09639 -0.48098,-3.63471 -2.135629,-5.47608 -4.920808,-5.47608 -2.094674,0 -2.106707,-0.011 -1.154922,-1.05535 2.372903,-2.60371 3.462132,-5.97386 5.231369,-16.18617 1.050377,-6.06294 2.823085,-12.56207 3.683113,-13.50304 0.892106,-0.9761 1.161264,4.05537 0.875173,16.35982 -0.295551,12.71126 -0.02804,17.27325 1.077896,18.3819 1.404136,1.40759 3.356253,-2.74585 4.03551,-8.5862 0.420799,-3.61806 -0.452316,-4.10079 -1.41554,-0.78263 l -0.643694,2.21745 -0.364283,-3.65227 c -0.415102,-4.16173 -0.08257,-7.84897 0.771996,-8.55994 0.320056,-0.26627 1.869506,-0.99174 3.443221,-1.61215 4.642929,-1.8304 4.674626,-1.88939 4.739976,-8.82226 l 0.057,-6.04971 0.717662,4.69576 c 0.394715,2.58267 0.592351,5.46047 0.439178,6.39512 -0.330199,2.01492 0.354316,2.39986 5.23502,2.94383 4.988,0.55594 7.91236,1.364 8.90151,2.4597 0.88035,0.97516 0.87898,1.13447 -0.0315,3.67253 -0.80562,2.24583 -0.89775,3.54398 -0.60016,8.45572 0.36952,6.09919 1.3793,9.32464 3.01382,9.62683 1.27472,0.23567 1.68482,-3.42828 1.26943,-11.34151 -0.32339,-6.16037 -0.27238,-6.70073 0.83786,-8.87701 2.11925,-4.15406 4.22962,-4.91659 11.33144,-4.09433 1.01757,0.1178 1.48361,-0.21538 2.13818,-1.52872 0.69254,-1.38955 0.80754,-3.19044 0.66634,-10.43503 l -0.17063,-8.75566 1.03003,1.23774 c 0.94664,1.13754 1.00338,1.74991 0.70092,7.56539 -0.37185,7.14947 0.1256,9.90796 2.12653,11.79236 1.42726,1.34414 4.54734,1.60386 7.1597,0.59598 l 1.41997,-0.54783 -0.11373,-5.97896 c -0.11504,-6.04739 0.1521,-7.29225 1.31478,-6.1267 0.45527,0.45638 0.71625,4.21969 0.90215,13.009 0.14387,6.80178 0.45108,12.66035 0.68266,13.01905 0.82409,1.27642 1.40058,0.61935 1.40058,-1.59636 0,-1.23669 0.49991,-4.23024 1.11091,-6.65233 0.91526,-3.62827 1.05065,-5.23071 0.76884,-9.09955 -0.18811,-2.58266 -0.48166,-5.34431 -0.65232,-6.137 l -0.31028,-1.44123 1.63924,1.53504 c 2.81209,2.63334 6.12841,3.43689 14.09873,3.41617 6.3611,-0.0166 7.33439,-0.14664 10.27934,-1.37416 3.00377,-1.25203 3.25295,-1.28288 3.25295,-0.40264 0,2.19455 4.74642,3.48434 6.46874,1.7578 0.91427,-0.91652 0.96252,-1.58705 0.34462,-4.78893 -0.50365,-2.60992 -0.51047,-2.60788 4.49958,-1.3463 l 3.45954,0.87114 -1.9967,0.69297 c -1.09817,0.38114 -2.29599,0.94199 -2.6618,1.24632 -0.49986,0.41586 -0.70742,0.28138 -0.83541,-0.54127 -0.25161,-1.61732 -1.18585,-1.53541 -1.37593,0.12064 -0.10507,0.91542 0.0833,1.44209 0.52048,1.45492 0.37684,0.0111 1.15732,0.77411 1.7344,1.69568 0.89322,1.42643 1.66717,1.8438 5.20473,2.80674 4.9996,1.36091 3.66823,1.47794 -4.69255,0.41249 -7.69734,-0.98089 -29.18104,-1.9485 -32.98844,-1.48577 -7.59378,0.92291 -6.03859,6.19756 3.93569,13.34842 2.07932,1.49071 3.69903,2.79212 3.5994,2.892 -0.0996,0.0999 -1.02697,-0.22271 -2.06074,-0.71689 -1.03374,-0.49417 -1.96469,-0.79772 -2.06874,-0.67455 -0.10405,0.12318 0.0505,1.90558 0.34347,3.96088 0.46482,3.26084 0.41648,3.9147 -0.3794,5.13234 -0.50163,0.76749 -1.04384,1.26334 -1.20488,1.10188 -0.16105,-0.16143 -0.0115,-0.63326 0.33221,-1.04849 0.92771,-1.12056 0.15632,-6.7748 -1.19938,-8.79146 -1.30133,-1.93578 -4.17556,-3.75212 -5.27078,-3.33081 -1.58103,0.60819 -0.721,6.24219 1.42426,9.33019 l 0.99679,1.43483 h -1.28271 c -1.76929,0 -4.18986,2.90539 -5.04637,6.05711 -0.51383,1.89075 -0.74624,2.24767 -0.89715,1.37784 -0.11203,-0.64567 -0.41337,-1.17394 -0.66965,-1.17394 -1.58878,0 -2.13161,6.73806 -0.75742,9.40197 0.9746,1.88931 1.89405,2.39577 5.19933,2.86392 1.4313,0.20273 6.11556,1.18618 10.40946,2.18545 8.14621,1.89577 13.98454,2.68727 17.9563,2.43431 l 2.34213,-0.14916 -2.08189,0.7223 c -2.69646,0.93554 -10.3901,0.966 -12.75159,0.0506 z M 90.82247,246.91606 c 0,-0.66179 -1.948831,-1.14028 -3.122831,-0.76676 -1.155576,0.36768 -1.403349,1.6141 -0.390356,1.96372 0.834391,0.28797 3.513187,-0.62472 3.513187,-1.19696 z m 29.79706,1.03195 c 1.07347,-0.29887 1.95177,-0.78098 1.95177,-1.07139 0,-0.29041 -0.24752,-0.37467 -0.55006,-0.18723 -0.97992,0.6071 -2.89999,-0.22163 -3.48242,-1.50308 -0.31221,-0.68689 -0.74005,-2.39474 -0.95076,-3.79521 l -0.38311,-2.54631 -0.64533,2.087 c -0.5689,1.83986 -0.65178,1.91709 -0.69989,0.65219 -0.05,-1.31557 -0.22661,-1.43481 -2.12446,-1.43481 -1.60059,0 -2.2523,0.27907 -2.87441,1.23086 -1.28343,1.96358 0.53497,4.60028 2.36998,3.43648 1.18177,-0.74951 1.45245,-0.59507 1.62891,0.9294 0.10326,0.89192 0.65016,1.66768 1.46588,2.07931 1.58569,0.80016 1.83516,0.80729 4.2939,0.12279 z m -31.878943,-5.49444 c 0,-3.30789 -0.845901,-3.64428 -1.826018,-0.72618 -0.587341,1.74873 -0.602798,1.75629 -1.001847,0.49027 -0.338935,-1.0753 -0.445949,-1.13214 -0.653467,-0.34715 -0.342219,1.29452 1.20213,3.49616 2.452383,3.49616 0.902093,0 1.028949,-0.35915 1.028949,-2.9131 z m 35.392133,0.60791 c 0,-2.07166 -0.43507,-3.43407 -1.09663,-3.43407 -0.53491,0 -0.64005,4.34616 -0.1178,4.86969 0.77303,0.77493 1.21443,0.25315 1.21443,-1.43562 z m -29.61021,-0.46799 c 0.48741,-1.82697 -0.17097,-4.22779 -1.21467,-4.4294 -0.59654,-0.11521 -0.91909,0.41216 -1.1728,1.91752 -0.59822,3.54955 1.51694,5.77493 2.38747,2.51188 z m 2.54564,-0.0964 c 0,-2.04136 -0.79498,-2.47966 -1.14721,-0.6325 -0.27125,1.4224 0.0112,2.45863 0.67011,2.45863 0.26241,0 0.4771,-0.82176 0.4771,-1.82613 z m 2.60236,0.26087 c 0,-1.63839 -0.85835,-2.12759 -1.3732,-0.78262 -0.37227,0.97251 0.11768,2.34788 0.83639,2.34788 0.29525,0 0.53681,-0.70437 0.53681,-1.56526 z m 21.64612,0.26088 c 0.4328,-1.72865 -0.14746,-3.91314 -1.03944,-3.91314 -0.80848,0 -1.54138,3.06488 -1.04375,4.36485 0.4928,1.28736 1.71408,1.02255 2.08319,-0.45171 z m -29.97369,-0.73995 c 0,-1.47608 -0.56276,-2.68681 -1.09547,-2.35677 -0.813945,0.50428 -0.546447,3.3576 0.31478,3.3576 0.42938,0 0.78069,-0.45038 0.78069,-1.00083 z m 42.3415,-5.91238 c 0.42037,-3.50831 0.43586,-15.70092 0.0213,-16.78382 -0.45685,-1.19347 -2.09621,-1.01306 -3.03764,0.3343 -0.89531,1.2814 -1.11229,5.10142 -0.28973,5.10142 0.28625,0 0.52405,-0.29348 0.52843,-0.65219 0.005,-0.4348 0.17615,-0.39131 0.5125,0.13045 0.27751,0.43043 0.50812,3.52218 0.51251,6.87052 0.005,3.34835 0.15013,6.4593 0.32389,6.91321 0.58533,1.5291 1.09855,0.84158 1.42871,-1.91389 z m -49.060925,-2.33889 c -0.437949,-0.75405 -0.538414,-0.57333 -0.551358,0.99184 -0.02349,2.84235 0.721276,4.35286 0.925886,1.87779 0.08855,-1.07116 -0.07999,-2.3625 -0.374528,-2.86963 z m 16.000965,1.98408 c 0.26362,-1.80488 -0.36155,-3.68877 -1.22413,-3.68877 -0.56215,0 -0.77078,0.61197 -0.77078,2.26092 0,1.24351 0.16102,2.42234 0.35782,2.61964 0.63101,0.63257 1.45861,0.0301 1.63709,-1.19179 z m 11.22145,0.18169 c 0.47866,-1.25044 0.37789,-3.87046 -0.14887,-3.87046 -0.63372,0 -1.09663,1.33948 -1.09663,3.17319 0,1.63721 0.72938,2.04556 1.2455,0.69727 z m 15.67888,-0.76843 c 0.32738,-1.03404 -0.52115,-3.10203 -1.27282,-3.10203 -0.88413,0 -1.51751,3.55984 -0.7672,4.31198 0.52456,0.52585 1.71376,-0.17947 2.04002,-1.20995 z m -33.09385,-0.68892 c 0.51204,-0.95909 0.52395,-1.49693 0.0527,-2.3796 -0.78884,-1.4776 -1.79372,-1.12589 -2.00847,0.70299 -0.33501,2.85298 0.80568,3.83084 1.95576,1.67661 z m 36.66651,-0.93022 c 0.41248,-2.06751 -0.1658,-6.78231 -0.78481,-6.39879 -0.25012,0.15494 -0.45474,2.16003 -0.45474,4.45573 0,4.16068 0.60721,5.11251 1.23955,1.94306 z m -42.467363,-1.17736 c -0.08238,-0.55354 -0.442525,-1.10308 -0.800349,-1.2212 -0.454897,-0.15018 -0.645609,0.4653 -0.63404,2.04613 0.0156,2.12738 0.06282,2.19952 0.800349,1.22121 0.431092,-0.57184 0.716415,-1.49261 0.63404,-2.04614 z m 8.438043,1.25973 c 0,-1.6384 -0.85836,-2.12759 -1.3732,-0.78263 -0.37228,0.97251 0.11768,2.34788 0.83639,2.34788 0.29524,0 0.53681,-0.70436 0.53681,-1.56525 z m 18.47965,1.03883 c 0.40683,-0.65988 -0.17819,-2.60409 -0.78359,-2.60409 -0.6054,0 -1.19042,1.94421 -0.78359,2.60409 0.17851,0.28954 0.53111,0.52642 0.78359,0.52642 0.25247,0 0.60509,-0.23688 0.78359,-0.52642 z m 5.89239,-0.97798 c 0.17148,-1.17143 -0.68994,-2.66961 -1.53498,-2.66961 -0.53675,0 -0.62214,3.31254 -0.0989,3.83705 0.62641,0.62794 1.45807,0.0337 1.63391,-1.16744 z m 2.59698,0.18381 c -0.0906,-0.72634 -0.39891,-1.3206 -0.68516,-1.3206 -0.28626,0 -0.59458,0.59426 -0.68516,1.3206 -0.11738,0.94118 0.0794,1.32059 0.68516,1.32059 0.60569,0 0.80254,-0.37941 0.68516,-1.32059 z m -32.78814,-0.33424 c -0.2062,-1.40481 -1.226578,-1.81413 -1.6653,-0.66802 -0.407642,1.06491 0.01965,1.80111 1.04542,1.80111 0.511,0 0.72798,-0.39664 0.61988,-1.13309 z m -16.043637,-6.85442 c -0.003,-7.09746 -0.636383,-11.01639 -1.722001,-10.6544 -0.917756,0.30603 -1.267782,2.61756 -1.336352,8.82509 -0.06004,5.43647 0.434835,8.11348 1.637668,8.85871 1.21014,0.74974 1.423522,-0.30605 1.420685,-7.0294 z m 42.681657,5.85702 c 0,-1.99621 -1.22601,-1.8171 -1.46588,0.21415 -0.1167,0.98833 0.0728,1.39458 0.6506,1.39458 0.56378,0 0.81528,-0.49627 0.81528,-1.60873 z m -17.69607,-3.57092 c 0,-1.59227 -0.30575,-2.29023 -1.37137,-3.13051 l -1.37137,-1.08137 h 1.58904 c 2.33283,0 3.23558,-0.4927 3.23558,-1.76586 0,-3.25831 -4.16026,-5.26534 -10.92992,-5.27287 -5.046844,-0.006 -9.109356,1.22429 -9.64635,2.92035 -0.23138,0.7308 -0.617769,0.93883 -1.325543,0.71364 -2.644815,-0.84149 0.835969,3.00896 3.590147,3.97143 1.57017,0.54871 1.627408,0.64643 0.76594,1.30763 -1.61325,1.23824 0.137808,1.87467 4.29897,1.56249 3.294616,-0.24717 3.984356,-0.12132 6.766136,1.23449 4.13878,2.0172 4.39874,1.99005 4.39874,-0.45942 z m 24.29443,0.4388 c 2.23923,-0.31177 4.14885,-0.64384 4.24362,-0.73795 0.49028,-0.4869 -1.24537,-2.52415 -2.68552,-3.15214 l -1.65056,-0.71974 2.15633,-0.0204 c 2.50377,-0.0237 2.89298,-0.61627 2.07373,-3.15723 -0.76674,-2.37811 -3.24646,-3.64405 -7.14001,-3.64514 -3.42894,-8.9e-4 -11.52192,1.00393 -11.98644,1.48833 -0.17773,0.18535 -0.47406,0.97908 -0.65851,1.76386 -0.5536,2.3554 1.08741,3.52222 5.01534,3.5661 l 3.25295,0.0363 -2.44665,0.7546 c -4.92295,1.51832 -3.72271,2.78617 2.70689,2.85936 4.18067,0.0476 4.33812,0.0898 2.86259,0.76709 -1.9375,0.88934 -1.02143,0.93174 4.25624,0.19695 z M 75.208296,210.40933 c 0,-0.86089 -0.241562,-1.56525 -0.536808,-1.56525 -0.718714,0 -1.208664,1.37536 -0.836393,2.34788 0.514845,1.34496 1.373201,0.85576 1.373201,-0.78263 z"
       id="path25" />
    <path
       style="fill:#00ffff;stroke-width:0.521111"
       d="m 96.54768,229.31788 c -2.03744,-1.24385 -2.88382,-1.42988 -6.505918,-1.42988 -2.316118,0 -4.23882,-0.23152 -4.332899,-0.52175 -0.517775,-1.5974 9.698077,-2.44427 12.426077,-1.0301 1.25342,0.64976 1.53557,1.12909 1.53557,2.60875 0,0.99701 -0.17566,1.81052 -0.39035,1.8078 -0.2147,-0.003 -1.44431,-0.64838 -2.73248,-1.43482 z"
       id="path26" />
    <path
       style="fill:#00ffff;stroke-width:0.521111"
       d="m 122.05084,228.67063 c 0,-0.30954 -1.92287,-0.52174 -4.72764,-0.52174 -3.54828,0 -4.67471,-0.1627 -4.51545,-0.6522 0.50263,-1.54499 9.20076,-2.54199 12.20097,-1.3985 0.80532,0.30694 1.89689,0.95058 2.42569,1.43033 0.92908,0.84286 0.92035,0.88383 -0.25928,1.21605 -1.9338,0.54461 -5.12429,0.49857 -5.12429,-0.0739 z"
       id="path27" />
    <path
       style="fill:#00ffff;stroke-width:0.521111"
       d="m 118.20083,228.09737 c -5.32346,-0.56269 -5.68121,-0.72457 -3.17639,-1.4373 3.02193,-0.85985 8.86365,-0.7518 10.69555,0.19782 3.42706,1.77656 1.13558,2.15431 -7.51916,1.23948 z"
       id="path28" />
    <path
       style="fill:#00ffff;stroke-width:0.521111"
       d="m 147.7329,210.38772 c -3.36372,-0.66712 -6.29288,-2.41393 -7.99298,-4.7666 -1.744,-2.41346 -1.97236,-4.12893 -0.69106,-5.19162 0.92982,-0.7712 9.00801,-0.93867 12.92914,-0.26805 1.30455,0.2231 1.79039,0.18154 1.30119,-0.11134 -0.42939,-0.25706 -2.77152,-0.74293 -5.20474,-1.0797 -7.34241,-1.01623 -11.7036,-2.80672 -13.06984,-5.36582 -0.71326,-1.33602 -2.01558,-11.57028 -2.01118,-15.80472 0.002,-1.72179 0.24773,-3.48269 0.5465,-3.91315 0.39656,-0.57132 0.4545,-0.19689 0.21459,1.38688 -0.65011,4.29172 1.57987,8.75541 5.16126,10.33117 3.63919,1.60117 5.23679,1.87185 11.85418,2.00843 7.03378,0.14519 8.2822,0.56595 9.35052,3.15144 0.48297,1.16886 0.48645,2.03845 0.0151,3.80464 -1.19133,4.46523 -0.80533,5.311 3.38844,7.42425 2.53993,1.27988 3.8078,2.87826 3.8078,4.80038 0,1.5273 -1.94443,2.64654 -6.24566,3.59513 -2.76236,0.60921 -10.27876,0.60846 -13.35338,-8.9e-4 z"
       id="path29" />
    <path
       style="fill:#00ffff;stroke-width:0.521111"
       d="m 145.4721,185.44229 c -4.15077,-0.75977 -7.79957,-1.54654 -8.10844,-1.74837 -0.67209,-0.43917 -0.50711,-10.53626 0.38917,-23.81662 0.48486,-7.18438 0.798,-9.28423 1.51717,-10.17415 l 0.90622,-1.12136 2.25758,1.6739 c 1.24167,0.92066 4.28438,3.10262 6.76159,4.8488 5.34338,3.76657 8.97808,7.51103 10.38436,10.69797 0.92004,2.08501 0.99116,3.08718 0.71163,10.02661 -0.39373,9.77411 -0.40648,9.83004 -2.40247,10.52756 -2.24991,0.78626 -3.71594,0.67829 -12.41681,-0.91434 z"
       id="path30" />
    <path
       style="fill:#00ffff;stroke-width:0.521111"
       d="m 195.78445,213.192 c -0.19083,-0.19131 -0.34699,-1.25951 -0.34699,-2.37378 0,-4.41571 -1.77173,-6.05788 -11.92112,-11.04924 -3.83716,-1.88708 -7.36976,-3.7877 -7.85024,-4.22358 -0.48047,-0.4359 -2.02524,-1.18513 -3.43281,-1.66497 -3.61715,-1.2331 -7.99525,-5.71792 -9.5896,-9.8234 -1.75208,-4.51159 -1.76102,-10.62012 -0.02,-13.69213 0.69117,-1.21958 1.48738,-2.21744 1.76934,-2.21744 1.65898,0 7.94742,4.28212 18.35491,12.4988 3.4692,2.73893 8.22281,6.37154 10.56356,8.07244 5.67756,4.12562 10.81301,9.60358 11.26443,12.01572 0.48655,2.59994 -0.095,4.38777 -2.03091,6.24291 -0.92166,0.88323 -2.56225,2.72112 -3.64576,4.08418 -1.95651,2.46134 -2.44881,2.79807 -3.11476,2.13049 z"
       id="path31" />
    <path
       style="fill:#00ffff;stroke-width:0.521111"
       d="m 178.96917,204.39193 c -10.90395,-2.88456 -13.69315,-3.9711 -15.68331,-6.10944 -1.40065,-1.50493 -2.23059,-4.07678 -1.82158,-5.64471 0.25842,-0.99056 0.53741,-1.08157 2.40035,-0.78293 3.14222,0.5037 9.5248,3.6845 18.56102,9.25001 4.43704,2.73282 8.53575,5.2328 9.10828,5.55549 2.26761,1.27816 -2.22311,0.4674 -12.56476,-2.26842 z"
       id="path32" />
    <path
       style="fill:#00ffff;stroke-width:0.521111"
       d="m 184.54412,212.98554 c -2.52838,-0.62856 -4.31911,-1.41459 -5.17314,-2.27072 -1.26578,-1.26889 -1.27713,-1.34158 -0.367,-2.34974 2.10176,-2.32811 9.84646,-1.80791 12.4866,0.83871 2.35136,2.35714 1.33776,4.9533 -1.87421,4.80044 -0.6629,-0.0315 -2.94541,-0.48996 -5.07225,-1.01869 z"
       id="path33" />
    <path
       style="fill:#00ffff;stroke-width:0.521111"
       d=""
       id="path34" />
    <path
       style="fill:#00ffff;stroke-width:0.521111"
       d="m 169.84814,210.53977 c -0.4224,-0.50218 -1.02745,-1.81034 -1.34458,-2.907 -0.50308,-1.73976 -0.44864,-2.1222 0.42709,-3.00007 1.25144,-1.25453 3.70797,-1.30259 4.75733,-0.093 1.07801,1.24254 1.65084,5.26059 0.8823,6.18889 -0.84914,1.02567 -3.79989,0.90773 -4.72214,-0.18875 z"
       id="path35" />
    <path
       style="fill:#00ffff;stroke-width:0.521111"
       d="m 102.49604,196.45248 c 0.16824,-0.78915 -0.0432,-3.54791 -0.47003,-6.13058 -1.06639,-6.45372 -1.03022,-9.80457 0.11675,-10.8142 1.33086,-1.17154 3.10358,-1.59118 5.11985,-1.212 l 1.77641,0.33408 v 8.0978 c 0,10.22255 -0.37675,11.13677 -4.59549,11.15172 -2.1867,0.008 -2.24432,-0.0345 -1.94749,-1.42682 z"
       id="path36" />
    <path
       style="fill:#00ffff;stroke-width:0.521111"
       d="m 101.67058,174.24236 c -1.44775,-2.83719 -1.77327,-6.46733 -0.79122,-8.82349 0.83769,-2.00982 1.23815,-2.20554 5.47015,-2.67355 4.09602,-0.453 3.71231,-1.19038 -1.01499,-1.95051 -1.82704,-0.29376 -3.54074,-0.75164 -3.8082,-1.01749 -0.58921,-0.58559 -0.62091,-0.89482 -1.0676,-10.41291 -0.41872,-8.92228 -1.23717,-12.75535 -3.34698,-15.67501 -2.53355,-3.50607 -2.91335,-6.45492 -2.1114,-16.39347 0.38224,-4.73716 0.77392,-8.53387 0.87041,-8.43714 0.0965,0.0967 0.38414,3.51801 0.63921,7.60285 0.38654,6.18979 0.66907,7.83232 1.69613,9.86029 1.512,2.98551 4.61819,4.78118 8.27065,4.78118 6.2757,0 7.62003,-4.92443 7.83387,-28.69634 l 0.0915,-10.174153 0.76287,14.087303 c 1.11569,20.60263 1.1778,19.68822 -1.97159,29.02673 -2.67246,7.92433 -3.81322,14.56764 -2.90769,16.93322 0.71204,1.86008 1.39725,-0.22875 2.16783,-6.60852 0.43055,-3.5646 0.97026,-7.06753 1.19937,-7.78429 0.9075,-2.83914 1.11511,3.05603 0.31583,8.96781 -1.83827,13.59648 -1.93674,14.92559 -1.35225,18.25196 0.47467,2.70137 0.441,3.3803 -0.20303,4.09368 -1.04527,1.15785 -0.97087,2.20514 0.26886,3.78509 2.11289,2.69271 1.2349,3.24901 -5.12769,3.24901 h -4.86744 z"
       id="path37" />
    <path
       style="fill:#00ffff;stroke-width:0.521111"
       d="m 93.26587,167.04598 c -2.32934,-1.35842 -1.90949,-5.85758 0.67605,-7.24472 1.82945,-0.9815 2.43655,-0.30978 2.82417,3.1248 0.48375,4.28626 -0.74168,5.72863 -3.50022,4.11992 z"
       id="path38" />
    <path
       style="fill:#00ffff;stroke-width:0.521111"
       d=""
       id="path39" />
    <path
       style="fill:#00ffff;stroke-width:0.521111"
       d="m 83.015385,167.25855 c -1.813964,-0.66168 -3.643307,-2.97451 -3.643307,-4.60623 0,-2.12223 1.400794,-3.37463 3.774474,-3.37463 2.70152,0 4.865672,-1.97996 5.270851,-4.82224 0.174177,-1.22177 -0.029,-4.45189 -0.451439,-7.17805 -1.1598,-7.48411 -1.060485,-9.61349 0.496071,-10.63589 1.737085,-1.14098 2.493095,-1.06285 3.863315,0.39928 1.58555,1.69188 2.6609,5.55347 2.6609,9.55526 0,2.15078 0.29019,3.77077 0.82086,4.58268 1.36455,2.0877 0.7549,3.41264 -2.6425,5.74278 l -3.122848,2.14184 v 3.01657 c 0,2.65702 -0.17405,3.1673 -1.460318,4.28118 -1.407127,1.21854 -3.680789,1.58513 -5.566059,0.89745 z"
       id="path40" />
    <path
       style="fill:#00ffff;stroke-width:0.521111"
       d="m 80.447911,156.73427 c -0.287216,-0.53798 -0.67156,-1.91441 -0.854096,-3.05874 -0.278723,-1.74732 -0.140605,-2.25923 0.862274,-3.19586 1.446453,-1.35088 3.668856,-1.44522 4.763323,-0.20219 1.079297,1.22578 1.132843,5.58061 0.08154,6.63447 -1.149331,1.15215 -4.202803,1.04037 -4.853075,-0.17768 z"
       id="path41" />
    <path
       style="fill:#00ffff;stroke-width:0.521111"
       d="m 80.40014,155.85234 c -1.236421,-3.26003 -0.01979,-5.96617 2.682253,-5.96617 1.876722,0 2.535359,0.94877 2.535359,3.65225 0,2.85157 -0.653218,3.65226 -2.979578,3.65226 -1.378612,0 -1.833645,-0.27211 -2.238034,-1.33834 z"
       id="path42" />
    <path
       style="fill:#00ffff;stroke-width:0.521111"
       d=""
       id="path43" />
    <path
       style="fill:#00ffff;stroke-width:0.521111"
       d="m 82.643399,133.73415 c -2.166138,-0.98576 -3.303605,-2.87761 -2.507019,-4.16968 0.188005,-0.30495 0.04457,-1.37852 -0.318743,-2.38572 -0.597885,-1.65748 -0.557121,-1.93496 0.429582,-2.92409 1.523479,-1.52723 5.114134,-1.82352 7.45242,-0.61497 1.001914,0.51783 1.821658,1.16695 1.821658,1.44249 0,0.27554 -0.808141,1.04692 -1.795872,1.71418 -1.290306,0.87167 -2.206052,1.12289 -3.252953,0.89239 -0.893559,-0.19674 -1.457087,-0.103 -1.457087,0.24239 0,0.30976 0.292767,0.57068 0.650592,0.5798 0.387295,0.01 0.269759,0.30606 -0.29043,0.73185 -0.895795,0.68087 -0.883976,0.7553 0.245927,1.54865 2.064134,1.44934 4.024376,1.05995 6.198655,-1.2313 l 1.959301,-2.06472 0.35348,2.09731 c 0.42719,2.53474 -0.52056,3.84988 -3.340229,4.63505 -2.622665,0.73031 -3.6391,0.64872 -6.149282,-0.49363 z"
       id="path44" />
    <path
       style="fill:#00ffff;stroke-width:0.521111"
       d="m 82.441766,133.03922 c -1.599205,-1.08005 -1.808406,-1.51708 -2.1853,-4.56515 -0.382646,-3.0946 -0.324622,-3.44557 0.708253,-4.28399 1.394301,-1.13182 4.693239,-1.18901 6.760765,-0.11722 0.844568,0.43782 1.535576,0.91084 1.535576,1.05117 0,0.63641 -3.53325,2.32311 -4.870059,2.32487 -1.049025,8.9e-4 -1.405916,0.21373 -1.211735,0.72099 0.151386,0.39549 7.94e-4,0.99826 -0.334669,1.33951 -0.902044,0.91762 0.97011,2.11545 3.306354,2.11545 1.488929,0 2.30514,-0.41047 3.804069,-1.91309 l 1.9084,-1.91308 v 2.18163 c 0,1.90142 -0.21727,2.31444 -1.69153,3.21552 -2.308302,1.41086 -5.505124,1.3461 -7.730124,-0.15661 z"
       id="path45" />
    <path
       style="fill:#00ffff;stroke-width:0.521111"
       d="m 83.309268,121.32412 c -2.842016,-0.22057 -3.894145,-1.12155 -3.920637,-3.35738 -0.03305,-2.78889 5.529534,-5.1449 9.531748,-4.03712 2.066151,0.5719 2.630131,1.32576 3.148751,4.20885 0.61663,3.42787 -0.48365,3.828 -8.759862,3.18565 z"
       id="path46" />
    <path
       style="fill:#00ffff;stroke-width:0.521111"
       d="m 81.671127,112.2807 c -1.868186,-0.54376 -2.741246,-2.18736 -2.326793,-4.38033 0.580173,-3.06982 6.9188,-5.03755 10.685421,-3.31714 1.421965,0.64948 1.786075,1.54084 1.975635,4.83634 0.0993,1.72719 -0.0898,2.16419 -1.18292,2.73149 -1.467533,0.76171 -6.723905,0.83617 -9.151343,0.12964 z"
       id="path47" />
    <path
       style="fill:#00ffff;stroke-width:0.521111"
       d="m 123.25141,121.18338 c -2.92915,-0.30106 -5.36436,-2.00089 -5.36436,-3.74443 0,-0.52812 0.71993,-1.39911 1.59983,-1.93553 3.52872,-2.15121 8.85028,-1.7531 10.8636,0.81271 2.80092,3.56954 -0.13569,5.58292 -7.09907,4.86725 z"
       id="path48" />
    <path
       style="fill:#00ffff;stroke-width:0.521111"
       d="m 86.109667,137.88588 -0.231678,-2.34788 2.602361,-0.66035 c 3.69999,-0.93886 4.60747,-2.21425 4.15927,-5.84551 -0.41113,-3.33084 -0.65222,-3.76067 -1.37909,-2.45865 -1.365725,2.44643 -3.716981,4.52962 -5.112497,4.52962 -1.59839,0 -3.038082,-1.23979 -2.108485,-1.81573 0.304828,-0.18886 0.403979,-0.58711 0.220331,-0.88497 -0.212131,-0.34409 0.06001,-0.41628 0.746208,-0.19795 1.288921,0.4101 4.008389,-0.8821 4.739846,-2.25219 0.678737,-1.27135 -0.253162,-2.54883 -2.307129,-3.16275 -1.462199,-0.43702 -1.408249,-0.46934 0.853768,-0.51135 1.472544,-0.0274 2.848328,-0.40106 3.526348,-0.9579 0.96754,-0.79464 1.06566,-1.24518 0.75638,-3.47357 -0.19888,-1.43303 -0.79674,-3.00294 -1.35771,-3.56531 -0.55128,-0.55263 -0.92426,-1.04392 -0.82884,-1.09175 2.1551,-1.08019 2.25497,-1.28401 2.12326,-4.33304 -0.10933,-2.53074 -0.36129,-3.26099 -1.46032,-4.23239 -1.732379,-1.53117 -6.268038,-1.60039 -9.467603,-0.14448 l -2.212009,1.00654 v -1.27888 -1.27887 h 6.970977 6.970975 l 0.33415,-8.739335 c 0.47831,-12.509389 1.25356,-21.117277 2.36408,-26.249003 1.02699,-4.745745 3.66957,-12.138408 4.94176,-13.824597 1.29438,-1.715632 0.90724,0.08549 -1.02328,4.760581 -2.52412,6.112629 -2.36219,9.091735 0.49446,9.096958 0.85039,0.0016 0.70744,0.221666 -0.70436,1.084473 -3.50823,2.14402 -4.74994,4.966029 -3.50226,7.959506 0.46377,1.112684 0.54454,2.09452 0.24012,2.919414 -0.73048,1.979552 -1.12911,8.523842 -0.68887,11.309179 l 0.40339,2.552175 0.72264,-4.159825 c 0.84196,-4.846733 2.64894,-9.116084 4.64204,-10.967774 1.69055,-1.570596 4.75729,-1.758543 7.00226,-0.429146 1.94397,1.151152 3.92553,5.620321 4.70643,10.614783 0.80158,5.126726 0.3364,30.875261 -0.63128,34.942681 -0.59005,2.48013 -0.70839,2.65717 -0.87188,1.30438 -0.35585,-2.94474 -1.31684,-3.43823 -6.04263,-3.10307 -6.02205,0.42708 -6.4853,0.57296 -6.88464,2.16794 l -0.34973,1.39687 -0.4971,-1.27438 c -0.2734,-0.7009 -0.68688,-4.23362 -0.91885,-7.85049 -0.23195,-3.61686 -0.72852,-7.60826 -1.10348,-8.86978 l -0.68174,-2.29366 -0.12131,2.34789 c -0.0667,1.29134 -0.39717,5.64167 -0.73434,9.66743 -0.77561,9.2609 -0.41479,12.3061 1.91831,16.19012 1.88448,3.13721 2.08345,4.09319 0.48287,2.32023 -1.06193,-1.17631 -2.31338,-1.38145 -2.40664,-0.39451 -0.0894,0.94591 -0.0843,0.99964 0.28181,3.00006 l 0.33427,1.82614 -0.86284,-1.56525 c -1.9683,-3.57066 -3.25635,-4.11332 -5.961352,-2.51152 -1.013601,0.60022 -1.544471,1.38793 -1.670273,2.47832 -0.152961,1.32583 -0.223927,1.19802 -0.416098,-0.74943 z"
       id="path49" />
    <path
       style="fill:#00ffff;stroke-width:0.521111"
       d="m 96.30129,85.612823 c 0.13611,-2.493032 0.47038,-5.120541 0.74284,-5.838905 0.35956,-0.94805 0.27725,-1.744407 -0.30025,-2.904884 -0.63664,-1.279295 -0.67982,-1.950523 -0.21608,-3.359093 0.70888,-2.153229 1.68948,-3.080069 4.71349,-4.455118 4.08773,-1.858738 9.44024,-1.027397 11.16116,1.733536 0.65433,1.049762 1.89114,12.906867 1.80144,17.270246 -0.0396,1.929461 -0.0957,1.843486 -0.74242,-1.138895 -1.56017,-7.19492 -3.97004,-10.072838 -8.438,-10.076811 -3.89556,-0.0035 -6.98257,3.989788 -8.46868,10.954829 -0.41705,1.954585 -0.45951,1.58859 -0.2535,-2.184905 z"
       id="path50" />
    <path
       style="fill:#00ffff;stroke-width:0.521111"
       d="m 100.19098,67.494253 c -2.05765,-0.548608 -1.98086,-3.182637 0.246,-8.437958 2.71084,-6.397483 3.0592,-6.98218 4.26439,-7.157237 2.10128,-0.30522 6.13454,6.557875 7.64945,13.016486 0.37498,1.598687 0.002,1.75596 -5.3937,2.271497 -1.86068,0.177799 -3.85149,0.397712 -4.42402,0.488701 -0.57252,0.09099 -1.62648,0.0093 -2.34212,-0.181489 z"
       id="path51" />
    <path
       style="fill:#00ffff;stroke-width:0.521111"
       d=""
       id="path52" />
    <path
       style="fill:#00ffff;stroke-width:0.521111"
       d="m 121.53759,167.37358 c -0.50361,-0.60831 -0.69503,-1.9965 -0.61146,-4.43444 0.13304,-3.8808 -0.56229,-5.22671 -2.70021,-5.22671 -1.69628,0 -3.33416,-1.36062 -3.71159,-3.08327 -0.19567,-0.89303 0.12549,-3.41371 0.78101,-6.12993 0.61234,-2.53727 1.19587,-5.9787 1.29675,-7.64762 0.20525,-3.39581 0.67599,-4.21261 2.86966,-4.9792 1.22784,-0.42908 1.73898,-0.34698 2.70226,0.43403 1.10031,0.89212 1.20102,1.43723 1.36428,7.38462 0.14178,5.16449 -0.008,6.96494 -0.76526,9.19821 -1.1983,3.53401 -0.78886,4.24406 3.23254,5.60579 4.378,1.48247 4.70523,1.77734 5.07628,4.5741 0.27362,2.06235 0.15369,2.66381 -0.70222,3.52183 -0.5677,0.5691 -1.58503,1.03472 -2.26072,1.03472 -0.6757,0 -2.26571,0.14251 -3.53337,0.31669 -1.80155,0.24753 -2.46492,0.12333 -3.03795,-0.56882 z"
       id="path53" />
    <path
       style="fill:#00ffff;stroke-width:0.521111"
       d="m 123.87248,167.73266 c -2.18984,-0.24105 -2.8626,-1.40127 -2.8626,-4.93674 0,-3.85867 -0.54573,-4.87423 -2.85243,-5.30803 -1.05412,-0.19824 -2.15367,-0.83686 -2.57497,-1.49553 -0.8034,-1.25605 -1.14204,-3.82592 -0.66714,-5.0627 0.51103,-1.33085 1.44681,-6.37857 1.74109,-9.39152 0.15415,-1.5783 0.61417,-3.39418 1.02227,-4.03529 1.04047,-1.63456 3.11605,-2.06088 4.39311,-0.90233 0.91202,0.8274 1.01996,1.63384 1.01996,7.61974 0,3.68194 -0.2854,7.76414 -0.63422,9.07157 -0.8317,3.11724 -0.34879,3.82665 3.7284,5.4771 3.75358,1.51947 4.71945,2.58352 4.69636,5.1738 -0.0152,1.7001 -1.07976,3.97532 -1.61094,3.44282 -0.12285,-0.12316 -1.03655,-0.0567 -2.03044,0.14753 -0.99386,0.20432 -2.50967,0.29412 -3.36845,0.19958 z"
       id="path54" />
    <path
       style="fill:#00ffff;stroke-width:0.521111"
       d="m 122.5713,130.12136 c -2.17828,-0.38579 -2.40985,-1.59122 -0.48348,-2.51677 2.39987,-1.15305 7.71083,1.18255 5.65473,2.48679 -0.81722,0.5184 -2.36292,0.52735 -5.17125,0.03 z"
       id="path55" />
    <path
       style="fill:#00ffff;stroke-width:0.521111"
       d="m 122.5713,130.12136 c -2.17828,-0.38579 -2.40985,-1.59122 -0.48348,-2.51677 2.39987,-1.15305 7.71083,1.18255 5.65473,2.48679 -0.81722,0.5184 -2.36292,0.52735 -5.17125,0.03 z"
       id="path56" />
    <path
       style="fill:#00ffff;stroke-width:0.521111"
       d="m 120.80944,133.6658 c -2.6237,-2.06888 -4.11029,-6.6913 -2.74752,-8.54314 0.61835,-0.84025 0.89406,-0.90681 1.53782,-0.37123 0.64459,0.53629 1.14161,0.40803 2.78881,-0.71967 4.84006,-3.31363 12.42112,0.52228 9.27447,4.69275 -0.42029,0.55703 -0.76416,1.91288 -0.76416,3.01298 0,2.42602 -1.11569,3.01788 -5.68889,3.01788 -2.27321,0 -3.36002,-0.2691 -4.40053,-1.08957 z m 8.20067,-3.60132 c 0.43836,-0.44704 0.21671,-0.92126 -0.87275,-1.8673 -2.8647,-2.48758 -9.51895,-1.45281 -7.84546,1.22003 0.99532,1.58969 7.33276,2.06021 8.71821,0.64727 z"
       id="path57" />
    <path
       style="fill:#00ffff;stroke-width:0.521111"
       d="m 119.87473,112.18961 c -0.44752,-0.3587 -1.07922,-1.4543 -1.40378,-2.43469 -0.48358,-1.46065 -0.4413,-2.01022 0.23418,-3.04365 1.80322,-2.75885 7.46108,-3.66216 9.80418,-1.56529 1.00926,0.90318 1.34605,1.76903 1.46032,3.75418 0.13231,2.29865 0.006,2.65369 -1.15266,3.25325 -1.67927,0.86857 -7.87254,0.89364 -8.94224,0.0362 z"
       id="path58" />
    <path
       style="fill:#00ffff;stroke-width:0.130278"
       d="m 7.3516767,193.10821 c 1.001468,-0.87699 9.4971873,-7.65475 12.4913423,-9.9654 1.753342,-1.3531 5.764236,-4.39388 8.913094,-6.75728 3.148862,-2.36342 6.193625,-4.74713 6.766144,-5.29714 2.043444,-1.96313 3.602707,-3.07172 9.45684,-6.72355 4.10373,-2.55992 5.902556,-3.84307 7.50179,-5.35121 2.28982,-2.1594 3.444854,-4.26289 3.624728,-6.60122 l 0.07671,-0.99716 0.534834,0.24349 c 1.991455,0.90659 7.097209,-0.85502 10.980969,-3.78871 1.353556,-1.02244 2.897137,-2.59227 3.623275,-3.68489 0.431695,-0.64957 0.772428,-0.99003 1.323317,-1.32228 1.804302,-1.08814 2.975991,-1.49906 3.598222,-1.26191 0.18231,0.0695 0.452839,0.31857 0.601174,0.55351 0.23861,0.37794 0.262217,0.57 0.204795,1.66634 -0.07421,1.41672 -0.424553,2.85651 -1.475526,6.06376 l -0.726102,2.21583 0.15362,1.43642 c 0.169038,1.58058 0.351211,2.41471 0.527367,2.41471 0.165923,0 0.239782,-0.45936 0.461397,-2.86963 0.222559,-2.42055 0.442063,-4.17835 0.542014,-4.34047 0.08216,-0.13325 0.675034,0.22983 0.99064,0.60668 1.427044,1.70397 1.790372,6.68532 0.928788,12.73401 -0.263196,1.84776 -0.591085,3.56372 -0.705635,3.69284 -0.138079,0.15565 -1.06757,-0.957 -1.527345,-1.82832 -1.537832,-2.91435 -2.337972,-8.15003 -2.612324,-17.09363 l -0.08904,-2.90275 -1.609338,1.37128 c -5.51679,4.7007 -13.35001,10.76768 -22.332404,17.29688 -1.932256,1.40454 -6.001701,4.36221 -9.043213,6.57259 -6.506379,4.72846 -13.349925,9.83925 -23.943516,17.88116 -1.709192,1.2975 -3.886476,2.88725 -4.838407,3.53277 -1.8556893,1.25838 -4.5595823,2.9161 -4.7422503,2.9074 -0.06125,-0.003 0.09357,-0.18477 0.344043,-0.40412 z"
       id="path59" />
    <path
       style="fill:#00ffff;stroke-width:0.130278"
       d="m 81.388909,141.99174 c -1.432915,-0.68748 -1.951772,-1.34763 -1.951772,-2.48327 0,-1.92428 2.437439,-4.20588 4.51273,-4.22424 0.719598,-0.007 0.848119,0.0341 1.219617,0.3842 0.671362,0.63266 0.773021,1.03697 0.845252,3.3617 0.07168,2.30756 0.02588,2.52552 -0.63377,3.01718 -0.308922,0.23024 -0.586496,0.27952 -1.756594,0.31183 -1.325674,0.0366 -1.428655,0.0197 -2.235463,-0.3674 z"
       id="path60" />
    <path
       style="fill:#00ffff;stroke-width:0.130278"
       d="m 81.699437,148.01041 c -1.029583,-0.63785 -1.565324,-3.41396 -0.905626,-4.69282 0.258393,-0.5009 0.618895,-0.70245 1.058569,-0.59183 0.654907,0.16478 2.789483,2.42279 2.789483,2.9508 0,0.27838 -1.21999,1.97404 -1.599733,2.22347 -0.53582,0.35194 -0.903915,0.38221 -1.342693,0.11038 z"
       id="path61" />
    <path
       style="fill:#00ffff;stroke-width:0.130278"
       d="m 76.054066,139.29476 c -0.822992,-0.30922 -0.892631,-1.27448 -0.120812,-1.67459 0.519348,-0.26922 0.994323,-0.23606 1.763874,0.12313 0.846021,0.3949 0.916821,0.51954 0.472887,0.83248 -0.80892,0.57024 -1.703147,0.87409 -2.115949,0.71898 z"
       id="path62" />
    <path
       style="fill:#00ffff;stroke-width:0.130278"
       d="m 76.471498,135.43646 c -0.655075,-0.69901 -0.946745,-2.45256 -0.681793,-4.09901 0.267162,-1.66021 1.58655,-5.05437 2.142693,-5.51215 0.605263,-0.49822 0.786768,0.94336 0.607036,4.82127 -0.09641,2.08018 -0.183798,2.8655 -0.393509,3.53644 -0.45861,1.46726 -1.055391,1.91399 -1.674427,1.25345 z"
       id="path63" />
    <path
       style="fill:#00ffff;stroke-width:0.130278"
       d="m 96.73638,143.26644 c -0.61402,-0.65094 -1.13848,-2.10314 -1.18943,-3.29356 -0.0123,-0.28696 -0.22298,-1.04377 -0.46819,-1.68181 -0.57354,-1.49224 -0.68571,-2.52461 -0.31108,-2.8632 0.64211,-0.58032 2.0358,0.44788 2.8514,2.10363 l 0.49002,0.99477 -0.006,1.76681 c -0.007,1.79718 -0.16229,2.70061 -0.52611,3.06532 -0.27766,0.27835 -0.51467,0.25239 -0.8395,-0.092 z"
       id="path64" />
    <path
       style="fill:#00ffff;stroke-width:0.130278"
       d="m 98.59571,168.1576 c -0.36491,-0.46505 -0.63425,-1.33146 -0.8344,-2.68412 -0.2105,-1.42261 -0.20177,-14.30052 0.0104,-15.45148 0.22242,-1.20618 0.31319,-1.17572 0.6712,0.22521 0.28285,1.10681 0.71519,4.35956 0.83624,6.29128 0.10345,1.65111 -0.13683,11.24309 -0.29206,11.6591 l -0.11606,0.31101 z"
       id="path65" />
    <path
       style="fill:#00ffff;stroke-width:0.130278"
       d="m 114.97537,167.43851 c -1.48808,-0.38175 -2.05343,-1.82763 -1.46653,-3.75064 0.68947,-2.25903 2.63356,-4.4754 3.92558,-4.4754 0.91166,0 1.42852,1.04766 1.42852,2.89556 0,0.80477 0.062,1.1472 0.28567,1.57713 0.6384,1.22721 0.21311,2.82078 -0.92375,3.4613 -0.41266,0.23249 -0.79128,0.31237 -1.67177,0.35268 -0.62606,0.0287 -1.33603,8.9e-4 -1.57772,-0.0606 z"
       id="path66" />
    <path
       style="fill:#00ffff;stroke-width:0.130278"
       d="m 103.61066,129.81186 c -1.14248,-0.47103 -1.97523,-1.06356 -2.89627,-2.06081 -1.86265,-2.01678 -2.12644,-3.88147 -0.66913,-4.73004 1.02255,-0.59539 3.07479,-0.72667 5.16071,-0.33011 0.55527,0.10555 0.72591,0.0785 1.38733,-0.21979 1.07817,-0.4863 2.51827,-0.568 3.26656,-0.1853 1.53726,0.78617 1.9442,3.64208 0.7258,5.09363 -0.70775,0.84317 -1.62944,0.2262 -2.35866,-1.57885 l -0.35905,-0.88878 -1.04095,-0.37839 c -1.20242,-0.43709 -2.46973,-0.72352 -2.74043,-0.61939 -0.60219,0.23166 0.38443,1.32374 2.38793,2.64317 0.62326,0.41045 1.15326,0.76041 1.17778,0.77769 0.0245,0.0173 -0.0502,0.35832 -0.16612,0.7579 -0.22572,0.77838 -0.79665,1.53666 -1.38765,1.84304 -0.54758,0.28386 -1.62939,0.22995 -2.48785,-0.12397 z"
       id="path67" />
    <path
       style="fill:#00ffff;stroke-width:0.130278"
       d="m 126.73508,157.78695 c -0.94407,-0.2284 -1.57493,-0.92185 -1.74725,-1.92066 -0.0599,-0.3477 -0.2404,-0.89413 -0.40092,-1.2143 -0.47175,-0.94095 -0.59986,-2.01639 -0.34454,-2.89223 0.41963,-1.43956 1.9894,-2.67165 3.58706,-2.81543 2.18095,-0.19629 3.53482,1.34097 3.14777,3.57417 -0.0983,0.56734 -0.0887,0.92217 0.0379,1.40493 0.42778,1.62983 -0.79132,3.25196 -2.84361,3.78372 -0.84166,0.21807 -0.86058,0.21912 -1.43648,0.0798 z"
       id="path68" />
    <path
       style="fill:#00ffff;stroke-width:0.130278"
       d="m 126.34473,147.64057 c -0.14312,-0.0347 -0.39198,-0.18488 -0.553,-0.33371 -0.59814,-0.55283 -0.27394,-1.55614 0.87882,-2.71977 1.15015,-1.16099 2.40132,-1.6909 3.20126,-1.35585 0.5383,0.22547 0.80869,0.6444 0.91426,1.41654 0.0683,0.49924 0.0185,0.76893 -0.26561,1.43901 -0.20348,0.47993 -0.50532,0.94003 -0.72213,1.10072 -0.55591,0.412 -2.54622,0.6731 -3.4536,0.45306 z"
       id="path69" />
    <path
       style="fill:#00ffff;stroke-width:0.130278"
       d="m 126.39309,141.58677 c -0.73573,-0.10713 -1.05248,-0.26896 -1.40451,-0.71759 -1.20552,-1.53633 1.77673,-5.78772 4.05996,-5.78772 0.65583,0 1.11073,0.38083 1.46209,1.22404 0.4653,1.11656 0.32087,3.40895 -0.27188,4.31583 -0.45115,0.69024 -2.39107,1.17725 -3.84566,0.96544 z"
       id="path70" />
    <path
       style="fill:#00ffff;stroke-width:0.130278"
       d="m 134.10331,136.11498 c -0.60523,-0.24286 -1.30242,-0.9191 -1.6328,-1.58372 -0.38332,-0.77111 -0.41723,-1.21872 -0.1423,-1.87832 0.15367,-0.3687 0.16489,-0.58808 0.0548,-1.07193 -0.22835,-1.00383 -0.20228,-2.28599 0.0545,-2.6788 0.82736,-1.2658 2.68056,1.33075 2.68795,3.76615 7.9e-4,0.28696 0.0967,0.91469 0.21293,1.39497 0.39522,1.63284 -0.12504,2.49708 -1.23505,2.05165 z"
       id="path71" />
    <path
       style="fill:#00ffff;stroke-width:0.130278"
       d="m 136.00469,158.26365 c -0.5966,-0.91277 -1.05054,-3.34614 -1.72223,-9.23214 -0.25745,-2.2561 -0.5627,-4.68896 -0.67832,-5.40637 -0.34326,-2.12993 -0.16414,-4.18748 0.42407,-4.87149 l 0.29758,-0.34603 0.36843,0.26877 c 0.7726,0.56361 1.87062,3.26228 2.47909,6.09304 0.2868,1.33432 0.32733,4.68747 0.0622,5.15302 -0.11028,0.1937 -0.21337,1.23834 -0.29605,3.00007 -0.12439,2.65085 -0.39731,5.06659 -0.6168,5.45975 -0.0926,0.16586 -0.14483,0.14638 -0.31804,-0.11862 z"
       id="path72" />
    <path
       style="fill:#00ffff;stroke-width:0.130278"
       d="m 202.98433,193.76088 c -1.85855,-1.4574 -14.63276,-11.07246 -19.84302,-14.93569 -2.61213,-1.93678 -7.79408,-5.77322 -11.51546,-8.52537 -15.98315,-11.82042 -26.75113,-20.00331 -29.51429,-22.4287 -2.63699,-2.31464 -2.33164,-2.18839 3.29547,1.36267 2.18274,1.37743 4.7298,2.92965 5.66016,3.44935 1.89729,1.05986 2.81472,1.76932 7.05761,5.45779 6.71091,5.834 9.55942,8.11154 12.49058,9.9869 0.51772,0.33124 1.83274,1.31568 2.92225,2.18766 2.59053,2.07325 6.05888,4.68176 11.42533,8.59282 7.39386,5.38864 10.63,7.8791 14.02072,10.79 1.71781,1.47473 5.36689,4.83198 5.36689,4.93769 0,0.1539 -0.29487,-0.035 -1.36624,-0.87512 z"
       id="path73" />
    <path
       style="fill:#00ffff;stroke-width:0.0921208"
       d="m 74.212435,249.60827 c -0.539987,-1.29555 -0.751366,-5.16248 -0.371696,-6.79977 0.12864,-0.55476 0.361423,-0.99381 0.52691,-0.99381 0.192624,0 0.638553,0.58328 0.942491,1.23278 0.689217,1.47283 0.623532,3.80117 -0.170737,6.05215 -0.31646,0.89687 -0.681638,1.09726 -0.926968,0.50865 z"
       id="path74" />
    <path
       style="fill:#00ffff;stroke-width:0.0921208"
       d="m 42.153837,258.03549 c -2.778611,-0.16538 -4.753662,-1.04 -6.167988,-2.73139 -0.580289,-0.69398 -0.79689,-1.15167 -1.017044,-2.14907 -0.729849,-3.30657 0.388159,-6.43844 3.443234,-9.64552 1.8417,-1.93333 3.942458,-3.60834 8.664196,-6.90829 4.289764,-2.99804 6.198114,-4.48339 7.783584,-6.05824 1.160897,-1.15312 2.389267,-1.99439 3.558432,-2.43703 0.962045,-0.36424 1.513076,-0.24302 1.818361,0.4 0.223918,0.47164 0.270423,1.85551 0.114038,3.39364 l -0.121905,1.19904 -0.112555,-1.98302 c -0.118188,-2.08233 -0.221678,-2.77405 -0.44252,-2.95778 -0.308846,-0.25695 -2.102649,0.58176 -3.511273,1.64173 -0.793604,0.59719 -1.679564,1.60442 -1.679564,1.9095 0,0.0287 0.11022,0.0522 0.244936,0.0522 0.275992,0 0.729985,-0.24822 1.880549,-1.02821 0.876261,-0.59404 1.543841,-0.92638 1.685065,-0.83888 0.05082,0.0314 -0.01566,0.0862 -0.147719,0.12161 -0.834729,0.2238 -7.048371,4.84359 -10.609392,7.888 -0.607251,0.51916 -2.284085,1.90893 -3.726301,3.08841 -1.442218,1.17947 -3.320093,2.74978 -4.173062,3.48958 -0.852967,0.7398 -1.713804,1.48486 -1.912972,1.65569 -0.346876,0.29751 -0.369559,0.30384 -0.538615,0.15048 -0.434065,-0.39379 -0.954154,0.16148 -1.456499,1.55503 -0.602301,1.67083 -0.787093,3.74929 -0.448082,5.03977 0.621156,2.36448 2.320194,4.04205 4.667154,4.60815 2.347441,0.56621 4.84353,0.44159 10.287296,-0.51361 1.02897,-0.18055 1.887787,-0.31131 1.908482,-0.29056 0.05228,0.0524 -3.274526,0.77338 -4.563978,0.98907 -2.010304,0.33627 -3.812405,0.45574 -5.425858,0.35972 z"
       id="path75" />
    <path
       style="fill:#00ffff;stroke-width:0.0651391"
       d="m 174.26964,246.31284 c -0.71916,-0.39741 -1.89797,-1.29056 -5.89675,-4.46777 -4.00431,-3.18161 -6.12329,-4.76128 -7.62903,-5.68735 -0.41998,-0.2583 -0.78555,-0.47107 -0.81238,-0.47284 -0.24787,-0.0163 0.50938,1.50428 1.13944,2.28811 0.17464,0.21724 0.30424,0.40829 0.28803,0.42455 -0.0162,0.0163 -0.25821,-0.2223 -0.53774,-0.53013 -0.92071,-1.01392 -1.28655,-1.5825 -1.25132,-1.9448 0.0305,-0.31327 0.2513,-0.36271 0.95089,-0.21289 0.89567,0.19182 0.92332,0.19433 0.92332,0.0839 0,-0.11729 -0.86964,-0.95014 -1.4443,-1.38318 -0.79392,-0.59827 -1.29833,-0.75588 -1.57754,-0.49294 -0.13494,0.12708 -0.13568,0.12671 -0.65478,-0.33421 -1.14566,-1.01727 -4.27263,-3.45837 -5.65936,-4.41804 -0.5563,-0.385 -0.58553,-0.41708 -0.58553,-0.64294 0,-0.28324 -0.17517,-0.40362 -0.58953,-0.40513 -0.30093,-8.9e-4 -0.51839,0.15957 -0.597,0.44107 -0.0884,0.31641 -0.0392,1.96329 0.11059,3.69938 0.19171,2.22299 0.16923,3.15796 -0.0897,3.73033 -0.10054,0.2223 -0.24303,0.45708 -0.31662,0.52175 -0.12986,0.11411 -0.13226,0.11374 -0.0813,-0.0128 0.59971,-1.49211 0.5218,-4.31534 -0.22735,-8.2372 -0.16047,-0.84016 -0.16279,-0.80558 0.0506,-0.75932 1.23181,0.26702 3.0978,1.21172 5.05835,2.56084 2.44188,1.68037 4.70803,3.51546 10.60462,8.58739 4.6505,4.00011 6.48679,5.51798 8.498,7.02438 0.71232,0.53352 0.88173,0.7042 0.79012,0.79603 -0.0601,0.0602 -0.0907,0.05 -0.46371,-0.15619 z"
       id="path76" />
    <path
       style="fill:#00ffff;stroke-width:0.130278"
       d="m 206.62353,200.43016 c -0.38186,-0.14486 -1.17228,-1.06369 -1.53824,-1.78816 -0.66785,-1.32209 -0.93897,-2.96838 -0.57175,-3.47179 0.14497,-0.19875 0.31819,-0.0523 1.56843,1.32567 1.87909,2.07114 1.81486,1.96581 1.64963,2.70492 -0.23397,1.04655 -0.57949,1.42989 -1.10807,1.22936 z"
       id="path77" />
    <path
       style="fill:#00ffff;stroke-width:0.0460601"
       d="m 99.20271,182.65537 c -0.26856,-0.26922 -0.64146,-1.24854 -0.87245,-2.29125 -0.13033,-0.58839 -0.25904,-1.50175 -0.25865,-1.8355 2.7e-4,-0.24565 0.0724,-0.54511 0.14148,-0.58793 0.19317,-0.11968 0.695,0.67493 1.31207,2.07756 0.22283,0.50648 0.22325,0.50845 0.27353,1.24515 0.0551,0.80826 0.0276,1.01504 -0.17587,1.3184 -0.1324,0.19742 -0.27215,0.2219 -0.42011,0.0735 z"
       id="path78" />
    <path
       style="fill:#00ffff;stroke-width:0.0460601"
       d="m 97.94296,175.91081 c -0.12936,-0.0908 -0.25463,-0.33834 -0.3369,-0.66565 -0.10397,-0.41367 -0.0803,-1.80936 0.0396,-2.3289 0.15102,-0.65466 0.32694,-0.98535 0.5644,-1.0609 0.2829,-0.09 0.66921,0.49298 1.04036,1.57003 0.16759,0.48636 0.16823,0.49109 0.11049,0.82014 -0.11703,0.66702 -0.88964,1.7375 -1.25404,1.7375 -0.0335,0 -0.10734,-0.0325 -0.16391,-0.0722 z"
       id="path79" />
    <path
       style="fill:#00ffff;stroke-width:0.0460601"
       d="m 111.47647,183.30139 c -0.64649,-0.35851 -1.08465,-3.35069 -0.68517,-4.67883 0.0402,-0.13351 0.13639,-0.3151 0.21384,-0.40351 0.2623,-0.29948 0.55923,-0.20266 1.07707,0.35122 0.128,0.13691 0.34372,0.41407 0.47937,0.61591 l 0.24662,0.36696 -0.0559,0.39396 c -0.0307,0.21668 -0.11606,0.69488 -0.1897,1.06265 -0.33545,1.67565 -0.72292,2.49311 -1.08622,2.29164 z"
       id="path80" />
    <path
       style="fill:#00ffff;stroke-width:0.0921208"
       d="m 132.73783,238.64968 c -0.34976,-0.53512 -0.36208,-0.73382 -0.37553,-6.05833 -0.0127,-5.01359 -0.0592,-6.08541 -0.32401,-7.47092 -0.21718,-1.13621 -0.84221,-2.66445 -0.94128,-2.30153 -0.0201,0.0737 -0.10614,0.42344 -0.19115,0.77716 -0.18762,0.7807 -0.38271,1.12088 -0.55884,0.97435 -0.32833,-0.27316 -0.42726,-1.86145 -0.18681,-2.99936 0.37513,-1.7753 1.39872,-2.65066 2.74606,-2.34839 0.38202,0.0857 0.5169,0.16027 0.55634,0.30762 0.0806,0.301 0.0515,15.01828 -0.0334,16.88876 -0.0955,2.10394 -0.31383,2.80835 -0.69143,2.23064 z"
       id="path81" />
    <path
       style="fill:#00ffff;stroke-width:0.0921208"
       d="m 117.42553,157.55178 c -1.40496,-0.37874 -2.55339,-1.56504 -2.86557,-2.96004 -0.0635,-0.28382 -0.0741,-0.77908 -0.0292,-1.36732 l 0.0705,-0.92234 0.0712,0.69175 c 0.28337,2.75491 1.1006,3.88258 3.24966,4.48415 0.64123,0.17948 0.68864,0.20613 0.36804,0.20683 -0.20242,5.2e-4 -0.59143,-0.0595 -0.86445,-0.13303 z"
       id="path82" />
    <path
       style="fill:#00ffff;stroke-width:0.0921208"
       d=""
       id="path83" />
    <path
       style="fill:#00ffff;stroke-width:0.0921208"
       d="m 116.36639,157.46938 c -2.15066,-0.88634 -2.64151,-3.01968 -1.70885,-7.42702 0.14494,-0.68483 0.49014,-2.17902 0.76712,-3.32041 0.277,-1.14139 0.54743,-2.26203 0.60098,-2.4903 l 0.0973,-0.41505 -0.0491,0.502 c -0.0501,0.51272 -0.42267,2.39631 -0.99514,5.03201 -0.42697,1.9658 -0.62029,3.30994 -0.63671,4.42721 -0.0126,0.85826 0.006,0.96539 0.27795,1.54214 0.50214,1.06768 1.18313,1.73076 2.21396,2.15574 0.4505,0.18572 0.48747,0.21766 0.25196,0.21766 -0.1518,0 -0.52058,-0.10079 -0.8195,-0.22398 z"
       id="path84" />
    <path
       style="fill:#00ffff;stroke-width:0.0921208"
       d="m 130.4107,166.35546 c 0.45644,-1.223 0.61067,-2.42477 0.44672,-3.48072 -0.26105,-1.68138 -1.17588,-2.60396 -3.7167,-3.7482 -0.44552,-0.20063 -0.77312,-0.37712 -0.728,-0.39221 0.13348,-0.0446 1.66122,0.51652 2.4909,0.91488 1.38857,0.66668 1.80399,1.29545 2.07798,3.14523 0.21433,1.44706 0.19082,2.40676 -0.0729,2.97373 -0.20649,0.44399 -0.63168,0.94538 -0.49805,0.58729 z"
       id="path85" />
    <path
       style="fill:#00ffff;stroke-width:0.0921208"
       d="m 131.09963,162.86281 c -0.0291,-0.0761 -0.0805,-0.34424 -0.11429,-0.59589 -0.0965,-0.71841 -0.40414,-1.42842 -0.81063,-1.8705 -0.47267,-0.51404 -1.55096,-1.04238 -3.45938,-1.69505 -0.7807,-0.26699 -1.37365,-0.50074 -1.31767,-0.51944 0.12452,-0.0416 2.77601,0.72409 3.63784,1.05055 1.80414,0.68337 2.58345,1.79801 2.248,3.21529 -0.073,0.30851 -0.15439,0.49218 -0.18387,0.41504 z"
       id="path86" />
    <path
       style="fill:#00ffff;stroke-width:0.0921208"
       d=""
       id="path87" />
    <path
       style="fill:#00ffff;stroke-width:0.0921208"
       d=""
       id="path88" />
    <path
       style="fill:#00ffff;stroke-width:0.0921208"
       d=""
       id="path89" />
    <path
       style="fill:#00ffff;stroke-width:0.0921208"
       d="m 122.66033,153.42106 c 0,-0.0416 0.12323,-0.47637 0.27383,-0.96621 0.50192,-1.63251 0.56718,-2.20838 0.61831,-5.45619 0.0482,-3.06352 -0.0747,-7.14782 -0.25406,-8.44051 -0.15264,-1.1001 -0.38513,-1.62565 -0.94226,-2.12999 -0.54984,-0.49775 -1.26639,-0.86426 -1.69223,-0.86556 -0.34133,-8.9e-4 -1.66166,0.39994 -2.17107,0.65937 -0.52693,0.26834 -1.06484,0.79767 -1.31647,1.29546 -0.20392,0.4034 -0.4402,1.33591 -0.52106,2.05642 l -0.031,0.27671 -0.0558,-0.32282 c -0.0307,-0.17755 -0.0997,-0.61697 -0.15337,-0.97648 -0.0537,-0.35953 -0.11732,-0.71232 -0.14147,-0.784 -0.0699,-0.2074 1.47324,-1.35248 2.56839,-1.90587 2.03597,-1.02879 3.48351,-0.64782 4.28259,1.12713 0.98458,2.18696 1.08914,5.81562 0.41869,14.52958 -0.03,0.39012 -0.13647,0.67717 -0.46101,1.24292 -0.23207,0.40459 -0.42196,0.70161 -0.42196,0.66004 z"
       id="path90" />
    <path
       style="fill:#00ffff;stroke-width:0.0921208"
       d=""
       id="path91" />
    <path
       style="fill:#00ffff;stroke-width:0.0921208"
       d="m 122.57416,153.17129 c -0.004,-0.0293 0.0536,-0.48577 0.12637,-1.01456 0.29614,-2.15368 0.37383,-3.9254 0.37383,-8.5246 0,-4.97032 -0.0447,-5.58852 -0.46365,-6.4174 -0.72812,-1.44038 -2.75422,-1.71103 -4.25188,-0.56797 -0.68318,0.52142 -1.11549,1.45039 -1.50261,3.22883 l -0.17524,0.80507 0.0398,-0.73787 c 0.12891,-2.38828 0.7726,-3.33427 2.73456,-4.01884 1.214,-0.42359 1.72367,-0.33826 2.72063,0.45546 0.76448,0.60866 0.95016,1.11387 1.14019,3.10222 0.17236,1.80337 0.16737,9.98087 -0.006,11.06801 -0.16038,1.00146 -0.11988,0.8142 -0.3192,1.47574 -0.0917,0.30437 -0.1766,0.5949 -0.18865,0.64563 -0.0356,0.1501 -0.2211,0.55802 -0.22744,0.50028 z"
       id="path92" />
  </g>
</svg>
